<svg id="achievement" xmlns="http://www.w3.org/2000/svg" width="63.998" height="64.001" viewBox="0 0 63.998 64.001">
  <path id="Path_93" data-name="Path 93" d="M46.486,22.369a7.4,7.4,0,1,0,7.4,7.4A7.4,7.4,0,0,0,46.486,22.369Z" fill="#5757ff"/>
  <path id="Path_94" data-name="Path 94" d="M63.958,59.778,57.677,38.506a3.255,3.255,0,0,0,.684-.7,3.3,3.3,0,0,0,.475-2.712,1.292,1.292,0,0,1,.532-1.4,3.294,3.294,0,0,0,.6-4.962,1.292,1.292,0,0,1-.182-1.493,3.294,3.294,0,0,0-1.773-4.673,1.293,1.293,0,0,1-.853-1.237,3.294,3.294,0,0,0-3.741-3.315,1.292,1.292,0,0,1-1.332-.7,3.292,3.292,0,0,0-4.853-1.2,1.3,1.3,0,0,1-1.5,0,3.291,3.291,0,0,0-4.853,1.2,1.293,1.293,0,0,1-1.331.7,3.294,3.294,0,0,0-3.742,3.315,1.292,1.292,0,0,1-.854,1.237,3.294,3.294,0,0,0-1.773,4.674A1.291,1.291,0,0,1,33,28.726a3.293,3.293,0,0,0,.6,4.962,1.294,1.294,0,0,1,.534,1.4A3.192,3.192,0,0,0,35.3,38.5L29.02,59.778a1,1,0,0,0,1.194,1.255l5.264-1.272,3.73,3.927a1,1,0,0,0,1.685-.4l5.6-18.964,5.6,18.964a1,1,0,0,0,1.684.4l3.73-3.927,5.266,1.272a1,1,0,0,0,1.185-1.255Zm-24.5,1.277-2.934-3.09a1.01,1.01,0,0,0-.96-.284l-4.141,1,5.734-19.427a1.28,1.28,0,0,1,.942.948,3.293,3.293,0,0,0,4.426,2.323,1.3,1.3,0,0,1,1.46.36,3.29,3.29,0,0,0,.667.576Zm7.026-21.889a9.4,9.4,0,1,1,9.4-9.4A9.4,9.4,0,0,1,46.484,39.166ZM57.4,57.681a1.007,1.007,0,0,0-.96.284l-2.933,3.09L48.318,43.462a3.263,3.263,0,0,0,.667-.576,1.3,1.3,0,0,1,1.459-.36A3.294,3.294,0,0,0,54.871,40.2a1.28,1.28,0,0,1,.943-.947l5.735,19.426Z" fill="#5757ff"/>
  <path id="Path_95" data-name="Path 95" d="M44.648,4.879h-5.2V1a1,1,0,0,0-1-1H9.8a1,1,0,0,0-1,1V4.879H3.6A3.606,3.606,0,0,0,0,8.481V16.24a13.129,13.129,0,0,0,12.673,13.1,15.312,15.312,0,0,0,8.452,4.878v6.609h-3.68a3.584,3.584,0,0,0-3.51,2.8l-.472,2.061A2.3,2.3,0,0,0,15.7,48.5H32.54a2.3,2.3,0,0,0,2.242-2.815l-.473-2.06a3.583,3.583,0,0,0-3.51-2.8H27.125V34.219a15.306,15.306,0,0,0,8.451-4.878A13.13,13.13,0,0,0,48.25,16.24V8.481a3.606,3.606,0,0,0-3.6-3.6ZM2,16.24V8.481a1.6,1.6,0,0,1,1.6-1.6H8.8V19.193a15.209,15.209,0,0,0,2.261,7.972A11.136,11.136,0,0,1,2,16.24ZM32.365,44.071l.473,2.061a.3.3,0,0,1-.293.368H15.7a.3.3,0,0,1-.293-.368l.473-2.061a1.593,1.593,0,0,1,1.56-1.243H30.8a1.593,1.593,0,0,1,1.565,1.243Zm-7.24-3.243h-2V34.467c.332.022.662.051,1,.051s.668-.029,1-.051Zm-1-8.31A13.339,13.339,0,0,1,10.8,19.193V2H37.449V19.193A13.339,13.339,0,0,1,24.125,32.518ZM46.25,16.24a11.136,11.136,0,0,1-9.062,10.925,15.218,15.218,0,0,0,2.261-7.972V6.879h5.2a1.6,1.6,0,0,1,1.6,1.6Z"/>
  <path id="Path_96" data-name="Path 96" d="M32.1,13.21l-4.89-.71L25.021,8.069a1,1,0,0,0-1.793,0L21.041,12.5l-4.89.71a1,1,0,0,0-.554,1.707l3.539,3.448-.835,4.87a1,1,0,0,0,1.451,1.055l4.373-2.3,4.373,2.3a1,1,0,0,0,1.451-1.055l-.835-4.87,3.538-3.449A1,1,0,0,0,32.1,13.21ZM27.342,17.3a1,1,0,0,0-.287.885l.581,3.391-3.045-1.6a1,1,0,0,0-.932,0l-3.045,1.6.581-3.391a1,1,0,0,0-.287-.885l-2.464-2.4,3.405-.494a1,1,0,0,0,.753-.547l1.523-3.085,1.522,3.084a1,1,0,0,0,.753.548l3.406.494Z"/>
</svg>
