<svg id="browser" xmlns="http://www.w3.org/2000/svg" width="64" height="64" viewBox="0 0 64 64">
  <path id="Path_108" data-name="Path 108" d="M61.29,53.986H54.015A40.354,40.354,0,0,0,55.23,44.81H64a20.151,20.151,0,0,1-2.71,9.176ZM23.476,44.81h8.77a40.354,40.354,0,0,0,1.215,9.176H26.186a20.163,20.163,0,0,1-2.71-9.176Zm2.71-11.177h7.275a40.356,40.356,0,0,0-1.215,9.177h-8.77a20.163,20.163,0,0,1,2.71-9.177Zm18.552-2V23.619c2.633.62,4.976,3.66,6.535,8.014Zm7.17,2a37.934,37.934,0,0,1,1.311,9.177H44.738V33.633Zm-9.17-10.014v8.014H36.2C37.762,27.279,40.1,24.239,42.738,23.619Zm0,10.014V42.81h-8.48a37.885,37.885,0,0,1,1.311-9.177ZM34.258,44.81h8.48v9.176H35.569a37.884,37.884,0,0,1-1.311-9.176Zm8.48,11.176V64c-2.633-.62-4.976-3.66-6.535-8.014Zm2,8.014V55.986h6.535C49.714,60.34,47.371,63.38,44.738,64Zm0-10.014V44.81h8.481a37.933,37.933,0,0,1-1.311,9.176ZM55.23,42.81a40.356,40.356,0,0,0-1.215-9.177H61.29A20.151,20.151,0,0,1,64,42.81Zm4.728-11.177H53.429a20.02,20.02,0,0,0-4.011-7.312,20.351,20.351,0,0,1,10.54,7.312Zm-21.9-7.312a20.035,20.035,0,0,0-4.011,7.312H27.519a20.348,20.348,0,0,1,10.539-7.312ZM27.519,55.986h6.528A20.04,20.04,0,0,0,38.058,63.3a20.356,20.356,0,0,1-10.539-7.314Zm21.9,7.313a20.025,20.025,0,0,0,4.011-7.313h6.529A20.358,20.358,0,0,1,49.418,63.3Z" fill="#5757ff"/>
  <g id="Group_7" data-name="Group 7">
    <path id="Path_109" data-name="Path 109" d="M45.5,0H3A3,3,0,0,0,0,3V43.81a3,3,0,0,0,3,3H45.5a3,3,0,0,0,3-3V3A3,3,0,0,0,45.5,0ZM3,2H45.5a1,1,0,0,1,1,1V7.75H2V3A1,1,0,0,1,3,2ZM45.5,44.81H3a1,1,0,0,1-1-1V9.75H46.5V43.81A1,1,0,0,1,45.5,44.81Z"/>
    <path id="Path_110" data-name="Path 110" d="M38.2,33.633H10.3a3.116,3.116,0,0,0-3.112,3.113V37.5A3.115,3.115,0,0,0,10.3,40.609H38.2A3.116,3.116,0,0,0,41.314,37.5v-.751A3.117,3.117,0,0,0,38.2,33.633ZM39.314,37.5A1.114,1.114,0,0,1,38.2,38.609H10.3A1.113,1.113,0,0,1,9.186,37.5v-.751A1.114,1.114,0,0,1,10.3,35.633H38.2a1.114,1.114,0,0,1,1.113,1.113Z"/>
    <path id="Path_111" data-name="Path 111" d="M22.418,27.493a6.3,6.3,0,0,0,3.958-1.4l4.332,4.332a1,1,0,1,0,1.414-1.414l-4.4-4.4a6.329,6.329,0,1,0-5.3,2.881Zm0-10.667a4.334,4.334,0,1,1-4.333,4.333,4.334,4.334,0,0,1,4.333-4.333Z"/>
    <path id="Path_112" data-name="Path 112" d="M4.875,5.873a1,1,0,1,0-1-1A1,1,0,0,0,4.875,5.873Z"/>
    <path id="Path_113" data-name="Path 113" d="M8.75,5.873a1,1,0,1,0-1-1A1,1,0,0,0,8.75,5.873Z"/>
    <path id="Path_114" data-name="Path 114" d="M12.625,5.873a1,1,0,1,0-1-1A1,1,0,0,0,12.625,5.873Z"/>
  </g>
</svg>
