<svg xmlns="http://www.w3.org/2000/svg" xmlns:xlink="http://www.w3.org/1999/xlink" width="242" height="375" viewBox="0 0 242 375">
  <defs>
    <clipPath id="clip-path">
      <rect width="242" height="375" fill="none"/>
    </clipPath>
  </defs>
  <g id="Repeat_Grid_2" data-name="Repeat Grid 2" clip-path="url(#clip-path)">
    <g transform="translate(-268 -431)">
      <circle id="Ellipse_1" data-name="Ellipse 1" cx="3" cy="3" r="3" transform="translate(268 431)" fill="#ddd"/>
    </g>
    <g transform="translate(-242 -431)">
      <circle id="Ellipse_1-2" data-name="Ellipse 1" cx="3" cy="3" r="3" transform="translate(268 431)" fill="#ddd"/>
    </g>
    <g transform="translate(-216 -431)">
      <circle id="Ellipse_1-3" data-name="Ellipse 1" cx="3" cy="3" r="3" transform="translate(268 431)" fill="#ddd"/>
    </g>
    <g transform="translate(-190 -431)">
      <circle id="Ellipse_1-4" data-name="Ellipse 1" cx="3" cy="3" r="3" transform="translate(268 431)" fill="#ddd"/>
    </g>
    <g transform="translate(-164 -431)">
      <circle id="Ellipse_1-5" data-name="Ellipse 1" cx="3" cy="3" r="3" transform="translate(268 431)" fill="#ddd"/>
    </g>
    <g transform="translate(-138 -431)">
      <circle id="Ellipse_1-6" data-name="Ellipse 1" cx="3" cy="3" r="3" transform="translate(268 431)" fill="#ddd"/>
    </g>
    <g transform="translate(-112 -431)">
      <circle id="Ellipse_1-7" data-name="Ellipse 1" cx="3" cy="3" r="3" transform="translate(268 431)" fill="#ddd"/>
    </g>
    <g transform="translate(-86 -431)">
      <circle id="Ellipse_1-8" data-name="Ellipse 1" cx="3" cy="3" r="3" transform="translate(268 431)" fill="#ddd"/>
    </g>
    <g transform="translate(-60 -431)">
      <circle id="Ellipse_1-9" data-name="Ellipse 1" cx="3" cy="3" r="3" transform="translate(268 431)" fill="#ddd"/>
    </g>
    <g transform="translate(-34 -431)">
      <circle id="Ellipse_1-10" data-name="Ellipse 1" cx="3" cy="3" r="3" transform="translate(268 431)" fill="#ddd"/>
    </g>
    <g transform="translate(-268 -405)">
      <circle id="Ellipse_1-11" data-name="Ellipse 1" cx="3" cy="3" r="3" transform="translate(268 431)" fill="#ddd"/>
    </g>
    <g transform="translate(-242 -405)">
      <circle id="Ellipse_1-12" data-name="Ellipse 1" cx="3" cy="3" r="3" transform="translate(268 431)" fill="#ddd"/>
    </g>
    <g transform="translate(-216 -405)">
      <circle id="Ellipse_1-13" data-name="Ellipse 1" cx="3" cy="3" r="3" transform="translate(268 431)" fill="#ddd"/>
    </g>
    <g transform="translate(-190 -405)">
      <circle id="Ellipse_1-14" data-name="Ellipse 1" cx="3" cy="3" r="3" transform="translate(268 431)" fill="#ddd"/>
    </g>
    <g transform="translate(-164 -405)">
      <circle id="Ellipse_1-15" data-name="Ellipse 1" cx="3" cy="3" r="3" transform="translate(268 431)" fill="#ddd"/>
    </g>
    <g transform="translate(-138 -405)">
      <circle id="Ellipse_1-16" data-name="Ellipse 1" cx="3" cy="3" r="3" transform="translate(268 431)" fill="#ddd"/>
    </g>
    <g transform="translate(-112 -405)">
      <circle id="Ellipse_1-17" data-name="Ellipse 1" cx="3" cy="3" r="3" transform="translate(268 431)" fill="#ddd"/>
    </g>
    <g transform="translate(-86 -405)">
      <circle id="Ellipse_1-18" data-name="Ellipse 1" cx="3" cy="3" r="3" transform="translate(268 431)" fill="#ddd"/>
    </g>
    <g transform="translate(-60 -405)">
      <circle id="Ellipse_1-19" data-name="Ellipse 1" cx="3" cy="3" r="3" transform="translate(268 431)" fill="#ddd"/>
    </g>
    <g transform="translate(-34 -405)">
      <circle id="Ellipse_1-20" data-name="Ellipse 1" cx="3" cy="3" r="3" transform="translate(268 431)" fill="#ddd"/>
    </g>
    <g transform="translate(-268 -379)">
      <circle id="Ellipse_1-21" data-name="Ellipse 1" cx="3" cy="3" r="3" transform="translate(268 431)" fill="#ddd"/>
    </g>
    <g transform="translate(-242 -379)">
      <circle id="Ellipse_1-22" data-name="Ellipse 1" cx="3" cy="3" r="3" transform="translate(268 431)" fill="#ddd"/>
    </g>
    <g transform="translate(-216 -379)">
      <circle id="Ellipse_1-23" data-name="Ellipse 1" cx="3" cy="3" r="3" transform="translate(268 431)" fill="#ddd"/>
    </g>
    <g transform="translate(-190 -379)">
      <circle id="Ellipse_1-24" data-name="Ellipse 1" cx="3" cy="3" r="3" transform="translate(268 431)" fill="#ddd"/>
    </g>
    <g transform="translate(-164 -379)">
      <circle id="Ellipse_1-25" data-name="Ellipse 1" cx="3" cy="3" r="3" transform="translate(268 431)" fill="#ddd"/>
    </g>
    <g transform="translate(-138 -379)">
      <circle id="Ellipse_1-26" data-name="Ellipse 1" cx="3" cy="3" r="3" transform="translate(268 431)" fill="#ddd"/>
    </g>
    <g transform="translate(-112 -379)">
      <circle id="Ellipse_1-27" data-name="Ellipse 1" cx="3" cy="3" r="3" transform="translate(268 431)" fill="#ddd"/>
    </g>
    <g transform="translate(-86 -379)">
      <circle id="Ellipse_1-28" data-name="Ellipse 1" cx="3" cy="3" r="3" transform="translate(268 431)" fill="#ddd"/>
    </g>
    <g transform="translate(-60 -379)">
      <circle id="Ellipse_1-29" data-name="Ellipse 1" cx="3" cy="3" r="3" transform="translate(268 431)" fill="#ddd"/>
    </g>
    <g transform="translate(-34 -379)">
      <circle id="Ellipse_1-30" data-name="Ellipse 1" cx="3" cy="3" r="3" transform="translate(268 431)" fill="#ddd"/>
    </g>
    <g transform="translate(-268 -353)">
      <circle id="Ellipse_1-31" data-name="Ellipse 1" cx="3" cy="3" r="3" transform="translate(268 431)" fill="#ddd"/>
    </g>
    <g transform="translate(-242 -353)">
      <circle id="Ellipse_1-32" data-name="Ellipse 1" cx="3" cy="3" r="3" transform="translate(268 431)" fill="#ddd"/>
    </g>
    <g transform="translate(-216 -353)">
      <circle id="Ellipse_1-33" data-name="Ellipse 1" cx="3" cy="3" r="3" transform="translate(268 431)" fill="#ddd"/>
    </g>
    <g transform="translate(-190 -353)">
      <circle id="Ellipse_1-34" data-name="Ellipse 1" cx="3" cy="3" r="3" transform="translate(268 431)" fill="#ddd"/>
    </g>
    <g transform="translate(-164 -353)">
      <circle id="Ellipse_1-35" data-name="Ellipse 1" cx="3" cy="3" r="3" transform="translate(268 431)" fill="#ddd"/>
    </g>
    <g transform="translate(-138 -353)">
      <circle id="Ellipse_1-36" data-name="Ellipse 1" cx="3" cy="3" r="3" transform="translate(268 431)" fill="#ddd"/>
    </g>
    <g transform="translate(-112 -353)">
      <circle id="Ellipse_1-37" data-name="Ellipse 1" cx="3" cy="3" r="3" transform="translate(268 431)" fill="#ddd"/>
    </g>
    <g transform="translate(-86 -353)">
      <circle id="Ellipse_1-38" data-name="Ellipse 1" cx="3" cy="3" r="3" transform="translate(268 431)" fill="#ddd"/>
    </g>
    <g transform="translate(-60 -353)">
      <circle id="Ellipse_1-39" data-name="Ellipse 1" cx="3" cy="3" r="3" transform="translate(268 431)" fill="#ddd"/>
    </g>
    <g transform="translate(-34 -353)">
      <circle id="Ellipse_1-40" data-name="Ellipse 1" cx="3" cy="3" r="3" transform="translate(268 431)" fill="#ddd"/>
    </g>
    <g transform="translate(-268 -327)">
      <circle id="Ellipse_1-41" data-name="Ellipse 1" cx="3" cy="3" r="3" transform="translate(268 431)" fill="#ddd"/>
    </g>
    <g transform="translate(-242 -327)">
      <circle id="Ellipse_1-42" data-name="Ellipse 1" cx="3" cy="3" r="3" transform="translate(268 431)" fill="#ddd"/>
    </g>
    <g transform="translate(-216 -327)">
      <circle id="Ellipse_1-43" data-name="Ellipse 1" cx="3" cy="3" r="3" transform="translate(268 431)" fill="#ddd"/>
    </g>
    <g transform="translate(-190 -327)">
      <circle id="Ellipse_1-44" data-name="Ellipse 1" cx="3" cy="3" r="3" transform="translate(268 431)" fill="#ddd"/>
    </g>
    <g transform="translate(-164 -327)">
      <circle id="Ellipse_1-45" data-name="Ellipse 1" cx="3" cy="3" r="3" transform="translate(268 431)" fill="#ddd"/>
    </g>
    <g transform="translate(-138 -327)">
      <circle id="Ellipse_1-46" data-name="Ellipse 1" cx="3" cy="3" r="3" transform="translate(268 431)" fill="#ddd"/>
    </g>
    <g transform="translate(-112 -327)">
      <circle id="Ellipse_1-47" data-name="Ellipse 1" cx="3" cy="3" r="3" transform="translate(268 431)" fill="#ddd"/>
    </g>
    <g transform="translate(-86 -327)">
      <circle id="Ellipse_1-48" data-name="Ellipse 1" cx="3" cy="3" r="3" transform="translate(268 431)" fill="#ddd"/>
    </g>
    <g transform="translate(-60 -327)">
      <circle id="Ellipse_1-49" data-name="Ellipse 1" cx="3" cy="3" r="3" transform="translate(268 431)" fill="#ddd"/>
    </g>
    <g transform="translate(-34 -327)">
      <circle id="Ellipse_1-50" data-name="Ellipse 1" cx="3" cy="3" r="3" transform="translate(268 431)" fill="#ddd"/>
    </g>
    <g transform="translate(-268 -301)">
      <circle id="Ellipse_1-51" data-name="Ellipse 1" cx="3" cy="3" r="3" transform="translate(268 431)" fill="#ddd"/>
    </g>
    <g transform="translate(-242 -301)">
      <circle id="Ellipse_1-52" data-name="Ellipse 1" cx="3" cy="3" r="3" transform="translate(268 431)" fill="#ddd"/>
    </g>
    <g transform="translate(-216 -301)">
      <circle id="Ellipse_1-53" data-name="Ellipse 1" cx="3" cy="3" r="3" transform="translate(268 431)" fill="#ddd"/>
    </g>
    <g transform="translate(-190 -301)">
      <circle id="Ellipse_1-54" data-name="Ellipse 1" cx="3" cy="3" r="3" transform="translate(268 431)" fill="#ddd"/>
    </g>
    <g transform="translate(-164 -301)">
      <circle id="Ellipse_1-55" data-name="Ellipse 1" cx="3" cy="3" r="3" transform="translate(268 431)" fill="#ddd"/>
    </g>
    <g transform="translate(-138 -301)">
      <circle id="Ellipse_1-56" data-name="Ellipse 1" cx="3" cy="3" r="3" transform="translate(268 431)" fill="#ddd"/>
    </g>
    <g transform="translate(-112 -301)">
      <circle id="Ellipse_1-57" data-name="Ellipse 1" cx="3" cy="3" r="3" transform="translate(268 431)" fill="#ddd"/>
    </g>
    <g transform="translate(-86 -301)">
      <circle id="Ellipse_1-58" data-name="Ellipse 1" cx="3" cy="3" r="3" transform="translate(268 431)" fill="#ddd"/>
    </g>
    <g transform="translate(-60 -301)">
      <circle id="Ellipse_1-59" data-name="Ellipse 1" cx="3" cy="3" r="3" transform="translate(268 431)" fill="#ddd"/>
    </g>
    <g transform="translate(-34 -301)">
      <circle id="Ellipse_1-60" data-name="Ellipse 1" cx="3" cy="3" r="3" transform="translate(268 431)" fill="#ddd"/>
    </g>
    <g transform="translate(-268 -275)">
      <circle id="Ellipse_1-61" data-name="Ellipse 1" cx="3" cy="3" r="3" transform="translate(268 431)" fill="#ddd"/>
    </g>
    <g transform="translate(-242 -275)">
      <circle id="Ellipse_1-62" data-name="Ellipse 1" cx="3" cy="3" r="3" transform="translate(268 431)" fill="#ddd"/>
    </g>
    <g transform="translate(-216 -275)">
      <circle id="Ellipse_1-63" data-name="Ellipse 1" cx="3" cy="3" r="3" transform="translate(268 431)" fill="#ddd"/>
    </g>
    <g transform="translate(-190 -275)">
      <circle id="Ellipse_1-64" data-name="Ellipse 1" cx="3" cy="3" r="3" transform="translate(268 431)" fill="#ddd"/>
    </g>
    <g transform="translate(-164 -275)">
      <circle id="Ellipse_1-65" data-name="Ellipse 1" cx="3" cy="3" r="3" transform="translate(268 431)" fill="#ddd"/>
    </g>
    <g transform="translate(-138 -275)">
      <circle id="Ellipse_1-66" data-name="Ellipse 1" cx="3" cy="3" r="3" transform="translate(268 431)" fill="#ddd"/>
    </g>
    <g transform="translate(-112 -275)">
      <circle id="Ellipse_1-67" data-name="Ellipse 1" cx="3" cy="3" r="3" transform="translate(268 431)" fill="#ddd"/>
    </g>
    <g transform="translate(-86 -275)">
      <circle id="Ellipse_1-68" data-name="Ellipse 1" cx="3" cy="3" r="3" transform="translate(268 431)" fill="#ddd"/>
    </g>
    <g transform="translate(-60 -275)">
      <circle id="Ellipse_1-69" data-name="Ellipse 1" cx="3" cy="3" r="3" transform="translate(268 431)" fill="#ddd"/>
    </g>
    <g transform="translate(-34 -275)">
      <circle id="Ellipse_1-70" data-name="Ellipse 1" cx="3" cy="3" r="3" transform="translate(268 431)" fill="#ddd"/>
    </g>
    <g transform="translate(-268 -249)">
      <circle id="Ellipse_1-71" data-name="Ellipse 1" cx="3" cy="3" r="3" transform="translate(268 431)" fill="#ddd"/>
    </g>
    <g transform="translate(-242 -249)">
      <circle id="Ellipse_1-72" data-name="Ellipse 1" cx="3" cy="3" r="3" transform="translate(268 431)" fill="#ddd"/>
    </g>
    <g transform="translate(-216 -249)">
      <circle id="Ellipse_1-73" data-name="Ellipse 1" cx="3" cy="3" r="3" transform="translate(268 431)" fill="#ddd"/>
    </g>
    <g transform="translate(-190 -249)">
      <circle id="Ellipse_1-74" data-name="Ellipse 1" cx="3" cy="3" r="3" transform="translate(268 431)" fill="#ddd"/>
    </g>
    <g transform="translate(-164 -249)">
      <circle id="Ellipse_1-75" data-name="Ellipse 1" cx="3" cy="3" r="3" transform="translate(268 431)" fill="#ddd"/>
    </g>
    <g transform="translate(-138 -249)">
      <circle id="Ellipse_1-76" data-name="Ellipse 1" cx="3" cy="3" r="3" transform="translate(268 431)" fill="#ddd"/>
    </g>
    <g transform="translate(-112 -249)">
      <circle id="Ellipse_1-77" data-name="Ellipse 1" cx="3" cy="3" r="3" transform="translate(268 431)" fill="#ddd"/>
    </g>
    <g transform="translate(-86 -249)">
      <circle id="Ellipse_1-78" data-name="Ellipse 1" cx="3" cy="3" r="3" transform="translate(268 431)" fill="#ddd"/>
    </g>
    <g transform="translate(-60 -249)">
      <circle id="Ellipse_1-79" data-name="Ellipse 1" cx="3" cy="3" r="3" transform="translate(268 431)" fill="#ddd"/>
    </g>
    <g transform="translate(-34 -249)">
      <circle id="Ellipse_1-80" data-name="Ellipse 1" cx="3" cy="3" r="3" transform="translate(268 431)" fill="#ddd"/>
    </g>
    <g transform="translate(-268 -223)">
      <circle id="Ellipse_1-81" data-name="Ellipse 1" cx="3" cy="3" r="3" transform="translate(268 431)" fill="#ddd"/>
    </g>
    <g transform="translate(-242 -223)">
      <circle id="Ellipse_1-82" data-name="Ellipse 1" cx="3" cy="3" r="3" transform="translate(268 431)" fill="#ddd"/>
    </g>
    <g transform="translate(-216 -223)">
      <circle id="Ellipse_1-83" data-name="Ellipse 1" cx="3" cy="3" r="3" transform="translate(268 431)" fill="#ddd"/>
    </g>
    <g transform="translate(-190 -223)">
      <circle id="Ellipse_1-84" data-name="Ellipse 1" cx="3" cy="3" r="3" transform="translate(268 431)" fill="#ddd"/>
    </g>
    <g transform="translate(-164 -223)">
      <circle id="Ellipse_1-85" data-name="Ellipse 1" cx="3" cy="3" r="3" transform="translate(268 431)" fill="#ddd"/>
    </g>
    <g transform="translate(-138 -223)">
      <circle id="Ellipse_1-86" data-name="Ellipse 1" cx="3" cy="3" r="3" transform="translate(268 431)" fill="#ddd"/>
    </g>
    <g transform="translate(-112 -223)">
      <circle id="Ellipse_1-87" data-name="Ellipse 1" cx="3" cy="3" r="3" transform="translate(268 431)" fill="#ddd"/>
    </g>
    <g transform="translate(-86 -223)">
      <circle id="Ellipse_1-88" data-name="Ellipse 1" cx="3" cy="3" r="3" transform="translate(268 431)" fill="#ddd"/>
    </g>
    <g transform="translate(-60 -223)">
      <circle id="Ellipse_1-89" data-name="Ellipse 1" cx="3" cy="3" r="3" transform="translate(268 431)" fill="#ddd"/>
    </g>
    <g transform="translate(-34 -223)">
      <circle id="Ellipse_1-90" data-name="Ellipse 1" cx="3" cy="3" r="3" transform="translate(268 431)" fill="#ddd"/>
    </g>
    <g transform="translate(-268 -197)">
      <circle id="Ellipse_1-91" data-name="Ellipse 1" cx="3" cy="3" r="3" transform="translate(268 431)" fill="#ddd"/>
    </g>
    <g transform="translate(-242 -197)">
      <circle id="Ellipse_1-92" data-name="Ellipse 1" cx="3" cy="3" r="3" transform="translate(268 431)" fill="#ddd"/>
    </g>
    <g transform="translate(-216 -197)">
      <circle id="Ellipse_1-93" data-name="Ellipse 1" cx="3" cy="3" r="3" transform="translate(268 431)" fill="#ddd"/>
    </g>
    <g transform="translate(-190 -197)">
      <circle id="Ellipse_1-94" data-name="Ellipse 1" cx="3" cy="3" r="3" transform="translate(268 431)" fill="#ddd"/>
    </g>
    <g transform="translate(-164 -197)">
      <circle id="Ellipse_1-95" data-name="Ellipse 1" cx="3" cy="3" r="3" transform="translate(268 431)" fill="#ddd"/>
    </g>
    <g transform="translate(-138 -197)">
      <circle id="Ellipse_1-96" data-name="Ellipse 1" cx="3" cy="3" r="3" transform="translate(268 431)" fill="#ddd"/>
    </g>
    <g transform="translate(-112 -197)">
      <circle id="Ellipse_1-97" data-name="Ellipse 1" cx="3" cy="3" r="3" transform="translate(268 431)" fill="#ddd"/>
    </g>
    <g transform="translate(-86 -197)">
      <circle id="Ellipse_1-98" data-name="Ellipse 1" cx="3" cy="3" r="3" transform="translate(268 431)" fill="#ddd"/>
    </g>
    <g transform="translate(-60 -197)">
      <circle id="Ellipse_1-99" data-name="Ellipse 1" cx="3" cy="3" r="3" transform="translate(268 431)" fill="#ddd"/>
    </g>
    <g transform="translate(-34 -197)">
      <circle id="Ellipse_1-100" data-name="Ellipse 1" cx="3" cy="3" r="3" transform="translate(268 431)" fill="#ddd"/>
    </g>
    <g transform="translate(-268 -171)">
      <circle id="Ellipse_1-101" data-name="Ellipse 1" cx="3" cy="3" r="3" transform="translate(268 431)" fill="#ddd"/>
    </g>
    <g transform="translate(-242 -171)">
      <circle id="Ellipse_1-102" data-name="Ellipse 1" cx="3" cy="3" r="3" transform="translate(268 431)" fill="#ddd"/>
    </g>
    <g transform="translate(-216 -171)">
      <circle id="Ellipse_1-103" data-name="Ellipse 1" cx="3" cy="3" r="3" transform="translate(268 431)" fill="#ddd"/>
    </g>
    <g transform="translate(-190 -171)">
      <circle id="Ellipse_1-104" data-name="Ellipse 1" cx="3" cy="3" r="3" transform="translate(268 431)" fill="#ddd"/>
    </g>
    <g transform="translate(-164 -171)">
      <circle id="Ellipse_1-105" data-name="Ellipse 1" cx="3" cy="3" r="3" transform="translate(268 431)" fill="#ddd"/>
    </g>
    <g transform="translate(-138 -171)">
      <circle id="Ellipse_1-106" data-name="Ellipse 1" cx="3" cy="3" r="3" transform="translate(268 431)" fill="#ddd"/>
    </g>
    <g transform="translate(-112 -171)">
      <circle id="Ellipse_1-107" data-name="Ellipse 1" cx="3" cy="3" r="3" transform="translate(268 431)" fill="#ddd"/>
    </g>
    <g transform="translate(-86 -171)">
      <circle id="Ellipse_1-108" data-name="Ellipse 1" cx="3" cy="3" r="3" transform="translate(268 431)" fill="#ddd"/>
    </g>
    <g transform="translate(-60 -171)">
      <circle id="Ellipse_1-109" data-name="Ellipse 1" cx="3" cy="3" r="3" transform="translate(268 431)" fill="#ddd"/>
    </g>
    <g transform="translate(-34 -171)">
      <circle id="Ellipse_1-110" data-name="Ellipse 1" cx="3" cy="3" r="3" transform="translate(268 431)" fill="#ddd"/>
    </g>
    <g transform="translate(-268 -145)">
      <circle id="Ellipse_1-111" data-name="Ellipse 1" cx="3" cy="3" r="3" transform="translate(268 431)" fill="#ddd"/>
    </g>
    <g transform="translate(-242 -145)">
      <circle id="Ellipse_1-112" data-name="Ellipse 1" cx="3" cy="3" r="3" transform="translate(268 431)" fill="#ddd"/>
    </g>
    <g transform="translate(-216 -145)">
      <circle id="Ellipse_1-113" data-name="Ellipse 1" cx="3" cy="3" r="3" transform="translate(268 431)" fill="#ddd"/>
    </g>
    <g transform="translate(-190 -145)">
      <circle id="Ellipse_1-114" data-name="Ellipse 1" cx="3" cy="3" r="3" transform="translate(268 431)" fill="#ddd"/>
    </g>
    <g transform="translate(-164 -145)">
      <circle id="Ellipse_1-115" data-name="Ellipse 1" cx="3" cy="3" r="3" transform="translate(268 431)" fill="#ddd"/>
    </g>
    <g transform="translate(-138 -145)">
      <circle id="Ellipse_1-116" data-name="Ellipse 1" cx="3" cy="3" r="3" transform="translate(268 431)" fill="#ddd"/>
    </g>
    <g transform="translate(-112 -145)">
      <circle id="Ellipse_1-117" data-name="Ellipse 1" cx="3" cy="3" r="3" transform="translate(268 431)" fill="#ddd"/>
    </g>
    <g transform="translate(-86 -145)">
      <circle id="Ellipse_1-118" data-name="Ellipse 1" cx="3" cy="3" r="3" transform="translate(268 431)" fill="#ddd"/>
    </g>
    <g transform="translate(-60 -145)">
      <circle id="Ellipse_1-119" data-name="Ellipse 1" cx="3" cy="3" r="3" transform="translate(268 431)" fill="#ddd"/>
    </g>
    <g transform="translate(-34 -145)">
      <circle id="Ellipse_1-120" data-name="Ellipse 1" cx="3" cy="3" r="3" transform="translate(268 431)" fill="#ddd"/>
    </g>
    <g transform="translate(-268 -119)">
      <circle id="Ellipse_1-121" data-name="Ellipse 1" cx="3" cy="3" r="3" transform="translate(268 431)" fill="#ddd"/>
    </g>
    <g transform="translate(-242 -119)">
      <circle id="Ellipse_1-122" data-name="Ellipse 1" cx="3" cy="3" r="3" transform="translate(268 431)" fill="#ddd"/>
    </g>
    <g transform="translate(-216 -119)">
      <circle id="Ellipse_1-123" data-name="Ellipse 1" cx="3" cy="3" r="3" transform="translate(268 431)" fill="#ddd"/>
    </g>
    <g transform="translate(-190 -119)">
      <circle id="Ellipse_1-124" data-name="Ellipse 1" cx="3" cy="3" r="3" transform="translate(268 431)" fill="#ddd"/>
    </g>
    <g transform="translate(-164 -119)">
      <circle id="Ellipse_1-125" data-name="Ellipse 1" cx="3" cy="3" r="3" transform="translate(268 431)" fill="#ddd"/>
    </g>
    <g transform="translate(-138 -119)">
      <circle id="Ellipse_1-126" data-name="Ellipse 1" cx="3" cy="3" r="3" transform="translate(268 431)" fill="#ddd"/>
    </g>
    <g transform="translate(-112 -119)">
      <circle id="Ellipse_1-127" data-name="Ellipse 1" cx="3" cy="3" r="3" transform="translate(268 431)" fill="#ddd"/>
    </g>
    <g transform="translate(-86 -119)">
      <circle id="Ellipse_1-128" data-name="Ellipse 1" cx="3" cy="3" r="3" transform="translate(268 431)" fill="#ddd"/>
    </g>
    <g transform="translate(-60 -119)">
      <circle id="Ellipse_1-129" data-name="Ellipse 1" cx="3" cy="3" r="3" transform="translate(268 431)" fill="#ddd"/>
    </g>
    <g transform="translate(-34 -119)">
      <circle id="Ellipse_1-130" data-name="Ellipse 1" cx="3" cy="3" r="3" transform="translate(268 431)" fill="#ddd"/>
    </g>
    <g transform="translate(-268 -93)">
      <circle id="Ellipse_1-131" data-name="Ellipse 1" cx="3" cy="3" r="3" transform="translate(268 431)" fill="#ddd"/>
    </g>
    <g transform="translate(-242 -93)">
      <circle id="Ellipse_1-132" data-name="Ellipse 1" cx="3" cy="3" r="3" transform="translate(268 431)" fill="#ddd"/>
    </g>
    <g transform="translate(-216 -93)">
      <circle id="Ellipse_1-133" data-name="Ellipse 1" cx="3" cy="3" r="3" transform="translate(268 431)" fill="#ddd"/>
    </g>
    <g transform="translate(-190 -93)">
      <circle id="Ellipse_1-134" data-name="Ellipse 1" cx="3" cy="3" r="3" transform="translate(268 431)" fill="#ddd"/>
    </g>
    <g transform="translate(-164 -93)">
      <circle id="Ellipse_1-135" data-name="Ellipse 1" cx="3" cy="3" r="3" transform="translate(268 431)" fill="#ddd"/>
    </g>
    <g transform="translate(-138 -93)">
      <circle id="Ellipse_1-136" data-name="Ellipse 1" cx="3" cy="3" r="3" transform="translate(268 431)" fill="#ddd"/>
    </g>
    <g transform="translate(-112 -93)">
      <circle id="Ellipse_1-137" data-name="Ellipse 1" cx="3" cy="3" r="3" transform="translate(268 431)" fill="#ddd"/>
    </g>
    <g transform="translate(-86 -93)">
      <circle id="Ellipse_1-138" data-name="Ellipse 1" cx="3" cy="3" r="3" transform="translate(268 431)" fill="#ddd"/>
    </g>
    <g transform="translate(-60 -93)">
      <circle id="Ellipse_1-139" data-name="Ellipse 1" cx="3" cy="3" r="3" transform="translate(268 431)" fill="#ddd"/>
    </g>
    <g transform="translate(-34 -93)">
      <circle id="Ellipse_1-140" data-name="Ellipse 1" cx="3" cy="3" r="3" transform="translate(268 431)" fill="#ddd"/>
    </g>
    <g transform="translate(-268 -67)">
      <circle id="Ellipse_1-141" data-name="Ellipse 1" cx="3" cy="3" r="3" transform="translate(268 431)" fill="#ddd"/>
    </g>
    <g transform="translate(-242 -67)">
      <circle id="Ellipse_1-142" data-name="Ellipse 1" cx="3" cy="3" r="3" transform="translate(268 431)" fill="#ddd"/>
    </g>
    <g transform="translate(-216 -67)">
      <circle id="Ellipse_1-143" data-name="Ellipse 1" cx="3" cy="3" r="3" transform="translate(268 431)" fill="#ddd"/>
    </g>
    <g transform="translate(-190 -67)">
      <circle id="Ellipse_1-144" data-name="Ellipse 1" cx="3" cy="3" r="3" transform="translate(268 431)" fill="#ddd"/>
    </g>
    <g transform="translate(-164 -67)">
      <circle id="Ellipse_1-145" data-name="Ellipse 1" cx="3" cy="3" r="3" transform="translate(268 431)" fill="#ddd"/>
    </g>
    <g transform="translate(-138 -67)">
      <circle id="Ellipse_1-146" data-name="Ellipse 1" cx="3" cy="3" r="3" transform="translate(268 431)" fill="#ddd"/>
    </g>
    <g transform="translate(-112 -67)">
      <circle id="Ellipse_1-147" data-name="Ellipse 1" cx="3" cy="3" r="3" transform="translate(268 431)" fill="#ddd"/>
    </g>
    <g transform="translate(-86 -67)">
      <circle id="Ellipse_1-148" data-name="Ellipse 1" cx="3" cy="3" r="3" transform="translate(268 431)" fill="#ddd"/>
    </g>
    <g transform="translate(-60 -67)">
      <circle id="Ellipse_1-149" data-name="Ellipse 1" cx="3" cy="3" r="3" transform="translate(268 431)" fill="#ddd"/>
    </g>
    <g transform="translate(-34 -67)">
      <circle id="Ellipse_1-150" data-name="Ellipse 1" cx="3" cy="3" r="3" transform="translate(268 431)" fill="#ddd"/>
    </g>
  </g>
</svg>
