<svg xmlns="http://www.w3.org/2000/svg" width="61.997" height="64.051" viewBox="0 0 61.997 64.051">
  <g id="pie-chart" transform="translate(-1 0)">
    <path id="Path_102" data-name="Path 102" d="M61.644,26.156A25.637,25.637,0,0,0,43.4,18.6a1,1,0,0,0-1,1V44.4a1,1,0,0,0,1.707.707L61.644,27.57a1,1,0,0,0,0-1.414Z" fill="#5757ff"/>
    <path id="Path_103" data-name="Path 103" d="M45.521,46.521A3,3,0,0,1,40.4,44.4V25.054a19.612,19.612,0,1,0,18.8,7.785Z" fill="#5757ff"/>
    <g id="Group_6" data-name="Group 6">
      <path id="Path_104" data-name="Path 104" d="M11.5,37.2H2a1,1,0,0,0-1,1v6.3a1,1,0,0,0,1,1h9.5a1,1,0,0,0,1-1V38.2A1,1,0,0,0,11.5,37.2Zm-1,6.3H3V39.2h7.5Z"/>
      <path id="Path_105" data-name="Path 105" d="M30.1,25.75H20.8a1,1,0,0,0-1,1V44.5a1,1,0,0,0,1,1h9.3a1,1,0,0,0,1-1V26.75a1,1,0,0,0-1-1Zm-1,17.75H21.8V27.75h7.3Z"/>
      <path id="Path_106" data-name="Path 106" d="M48.7,14.3H39.4a1,1,0,0,0-1,1V44.5a1,1,0,0,0,1,1h9.3a1,1,0,0,0,1-1V15.3a1,1,0,0,0-1-1Zm-1,29.2H40.4V16.3h7.3Z"/>
      <path id="Path_107" data-name="Path 107" d="M43.342,9.593a1,1,0,1,0,1.414,1.414L49.4,6.359a1,1,0,0,0,0-1.417L44.756.293a1,1,0,1,0-1.414,1.414L46.285,4.65H36.4a3,3,0,0,0-3,3v12.1a1,1,0,0,1-1,1H17.8a3,3,0,0,0-3,3V31.2a1,1,0,0,1-1,1H2a1,1,0,0,0,0,2H13.8a3,3,0,0,0,3-3V23.75a1,1,0,0,1,1-1H32.4a3,3,0,0,0,3-3V7.65a1,1,0,0,1,1-1h9.886Z"/>
    </g>
  </g>
</svg>
