<svg id="Layer_1" data-name="Layer 1" xmlns="http://www.w3.org/2000/svg" xmlns:xlink="http://www.w3.org/1999/xlink" viewBox="0 0 1085.95 939.59"><defs><style>.cls-1,.cls-10,.cls-13,.cls-14,.cls-6,.cls-9{fill:none;}.cls-2,.cls-4{fill:#fff;}.cls-3{fill:url(#New_Pattern_2);}.cls-10,.cls-13,.cls-15,.cls-4{stroke:#000;}.cls-10,.cls-12,.cls-13,.cls-14,.cls-15,.cls-4,.cls-6,.cls-9{stroke-miterlimit:10;}.cls-5{fill:#110809;}.cls-6{stroke:#110809;}.cls-10,.cls-14,.cls-6{stroke-width:2px;}.cls-15,.cls-7{fill:#5757ff;}.cls-8{fill:#c9cdd1;}.cls-12,.cls-14,.cls-9{stroke:#fff;}.cls-11{fill:#7a483a;}</style><pattern id="New_Pattern_2" data-name="New Pattern 2" width="54" height="54" patternTransform="translate(27 27)" patternUnits="userSpaceOnUse" viewBox="0 0 54 54"><rect class="cls-1" width="54" height="54"/><rect class="cls-2" width="54" height="54"/><circle cx="5.29" cy="4.68" r="0.97" transform="translate(-0.31 0.38) rotate(-3.98)"/><circle cx="24.65" cy="4.68" r="0.97" transform="matrix(1, -0.07, 0.07, 1, -0.27, 1.72)"/><circle cx="42.11" cy="4.68" r="0.97" transform="translate(-0.22 2.93) rotate(-3.98)"/><circle cx="5.29" cy="22.04" r="0.97" transform="translate(-1.52 0.42) rotate(-3.98)"/><circle cx="24.65" cy="22.04" r="0.97" transform="matrix(1, -0.07, 0.07, 1, -1.47, 1.76)"/><circle cx="42.11" cy="22.04" r="0.97" transform="translate(-1.43 2.98) rotate(-3.98)"/><circle cx="5.29" cy="39.41" r="0.97" transform="translate(-2.72 0.46) rotate(-3.98)"/><circle cx="24.65" cy="39.41" r="0.97" transform="matrix(1, -0.07, 0.07, 1, -2.68, 1.81)"/><circle cx="42.11" cy="39.41" r="0.97" transform="translate(-2.63 3.02) rotate(-3.98)"/></pattern></defs><title>team</title><path class="cls-3" d="M430,994.31l-23.61-.24c-50.82-.53-105.26-2.19-146.48-31.91-61.08-44.05-78.76-128.58-54.67-196.34C230,696.2,279.67,640.29,331.52,590.6a1422.56,1422.56,0,0,1,192.56-155c70-46.91,145.8-87.85,227.7-99.58,73.42-10.52,149.52,4.15,214.68,39.26,23.54,12.68,47.73,22.59,64,44.08,24.83,32.75,47.68,65.57,76.5,95.19,23.81,24.46,51.58,47.06,70,76,20.19,31.73,26.76,68.7,28.74,105.7a554.76,554.76,0,0,1-28.54,207.32c-7.48,22-17.08,44.61-35.29,59.09-15.38,12.23-35.16,17.27-54.45,21.07-83.49,16.46-169.29,15.64-254.38,14.76Z" transform="translate(-159.71 -233)"/><path d="M791,1038.54a38.18,38.18,0,0,0,6.07-.48c8.63-1.24,17.3.4,25.93.83,4.28.21,8.29-.43,12.52-.66,3.28-.18,6.4.08,9.17-2.2a5.29,5.29,0,0,0,2-5.35c-.82-2.77-4.14-3.78-7-4.36L819,1022c-2.79-.58-8.19-1.76-8.82-5.21-.3-1.67.66-4.48.82-6.23q.3-3.28.45-6.57c.18-4,1.45-7.87-3.58-8.14L791.72,995a3.07,3.07,0,0,0-1.5.17,3.11,3.11,0,0,0-1.32,2.23l-2.2,8.88c-1.14,4.6-2.28,9.2-3,13.89-.51,3.33-.45,6.69-.77,10-.2,2-.75,4.09.76,5.8C785.34,1037.9,788.16,1038.48,791,1038.54Z" transform="translate(-159.71 -233)"/><path d="M831.07,1056.59a4,4,0,0,0,2,3c2.15,1.08,5.82.89,8.18,1.3a45,45,0,0,0,11.76.76c2.92-.26,5.79-.92,8.72-1,8.33-.34,16.84,2.85,25.06.48,2.84-.81,7.63-2.64,8.49-5.88,1.12-4.26-2.67-6.94-6.19-7.92a57.32,57.32,0,0,0-13.94-2,28.51,28.51,0,0,1-5.69-.45c-4.73-1.09-6.58-4.91-5.52-9.29,1.42-5.85,2.77-11.71,4.15-17.57-9.63-1.33-19.39.28-29,1.89a2.75,2.75,0,0,0-1.64.67,2.71,2.71,0,0,0-.53,1.23c-1.53,6.38-.75,12.4-2.89,18.51C833,1043.27,830.06,1051.8,831.07,1056.59Z" transform="translate(-159.71 -233)"/><path class="cls-4" d="M563.55,690.9a53.26,53.26,0,0,1,5.74-1.4c3.64-.84,5.78-2.58,8.37-5.13a18.73,18.73,0,0,1,5.44-4.19c6.75-2.9,10.14,3,7.67,8.77-1.94,4.54-5,9.22-9.56,11.5-5,2.51-10.09,2.67-14.57,6.24-1.14.91-13,10.89-12.52,11.51-2.23-2.77-7.05-8.79-6.78-12.52,3.33-1,5.59-3.31,7.5-6.13s3.57-5.79,6.4-7.55A11.84,11.84,0,0,1,563.55,690.9Z" transform="translate(-159.71 -233)"/><rect id="_Rectangle_" data-name="&lt;Rectangle&gt;" class="cls-5" x="298.23" y="609.89" width="5.12" height="113"/><path id="_Path_" data-name="&lt;Path&gt;" class="cls-6" d="M415.72,979.61c0-16.69,29.53-23.68,44.28-23.71,17.56,0,44.28,6.44,44.28,23.71" transform="translate(-159.71 -233)"/><line id="_Path_2" data-name="&lt;Path&gt;" class="cls-6" x1="300.78" y1="751.07" x2="300.78" y2="723.35"/><circle id="_Path_3" data-name="&lt;Path&gt;" class="cls-5" cx="344.56" cy="750.63" r="7.25"/><circle id="_Path_4" data-name="&lt;Path&gt;" class="cls-5" cx="300.65" cy="750.63" r="7.25"/><circle id="_Path_5" data-name="&lt;Path&gt;" class="cls-5" cx="256.74" cy="750.63" r="7.25"/><path id="_Path_6" data-name="&lt;Path&gt;" class="cls-4" d="M455.53,805V721.82a26.05,26.05,0,0,0-26.05-26.05H400.79a26.05,26.05,0,0,0-26.05,26.05v92.95a37.44,37.44,0,0,0,37.33,37.33h93.53A4.39,4.39,0,0,0,510,847.7h0a4.39,4.39,0,0,0-4.39-4.39H493.88A38.35,38.35,0,0,1,455.53,805Z" transform="translate(-159.71 -233)"/><g id="_Group_" data-name="&lt;Group&gt;"><path id="_Path_7" data-name="&lt;Path&gt;" class="cls-4" d="M636.91,960.52a40.49,40.49,0,0,0,2.23,3.63c2.6,3.69,8.28,7,12.94,6.34,5-.66,9.93-2.44,15-2.19a7.81,7.81,0,0,1,5.16,1.82c5.84,5.69-8.08,10.78-11.91,11.93l-26.14,7.83a10.92,10.92,0,0,1-5,.68c-3.57-.51-5.11-2.9-6.09-5.9-1.25-3.82-2.75-7.48-4.27-11.25A119,119,0,0,1,613,954.63a11.06,11.06,0,0,1-.23-5.42,6.85,6.85,0,0,1,6.14-4.75,11.87,11.87,0,0,1,3.5.73C630.49,947.74,633,953.48,636.91,960.52Z" transform="translate(-159.71 -233)"/><path d="M587.37,826.79a44.4,44.4,0,0,0-2.57-17c-3.17-8.48-9.75-15.92-18.31-18.86-4.84-1.66-10-1.86-15.16-2L485,786.57c-19.23-.68-41.46,14.91-40.87,36,.36,13.05,9.27,26.61,23.35,27,.31,0,.62,0,.93,0l63,.34c14.76.08,34,6.2,47.35-1.95a15.73,15.73,0,0,0,4.85-4.3,18.71,18.71,0,0,0,2.6-7.12A60.47,60.47,0,0,0,587.37,826.79Z" transform="translate(-159.71 -233)"/><path id="_Path_8" data-name="&lt;Path&gt;" d="M501,819.59c20.28,11-17.12,30-36.61,30l-33.87.05c-19.61,0-34.82-9.83-35.43-29.17V762l75.09.18S479,807.62,501,819.59Z" transform="translate(-159.71 -233)"/><path d="M574.42,828.69c-15.76-10.51-79.38-25.94-88-29.35-17.17-6.76-36.09-9.58-54.44-7.16-15.56,2.05-31.87,4.68-35.73,22.24a29.15,29.15,0,0,0,22.21,34.73c.36.08.71.11,1.07.19l146.11,28.85c.32.09.64.19,1,.26a23,23,0,0,0,2.35.39c11.47,1.3,20.71-5.37,23.25-16.9C594.93,849.34,587.72,837.56,574.42,828.69Z" transform="translate(-159.71 -233)"/><path id="_Path_9" data-name="&lt;Path&gt;" class="cls-4" d="M554.75,967.45c.06,4.38.67,8.23,4.57,11.94,5.74,5.45,14.63,6.23,20.8,11.19a4.52,4.52,0,0,1,1.39,1.6,3.5,3.5,0,0,1-1,3.78c-5.41,5.17-17.86.11-24.17-1l-23.83-4.25a3.82,3.82,0,0,1-3.08-4.51L534,963.52l.65-3.35a10.09,10.09,0,0,1,12.05-7.94,10.64,10.64,0,0,1,8.09,10.51C554.78,964.39,554.73,966,554.75,967.45Z" transform="translate(-159.71 -233)"/><path class="cls-4" d="M473.54,678.41l-1.88-9.84q3.58,21.32,6.84,42.7c2.05,13.45,3.39,27.11,7.71,40.08,1.42,4.39,3.57,12.17,8.54,14,6.3,2.26,10.46,1.32,16.8,1.38a30.15,30.15,0,0,0,8.12-.65c7.34-2,12.06-9,15.28-15.91,3.59-7.67,7.17-12.67,14-17.69q7.15-5.24,13.77-11.16c1.62-1.45,5.7-4,6.45-6.08.85-2.29-.55-3.1-2.2-4.78-5.31-5.41-11.18-10.35-16.18-16.06L536,708.11l-10.58,9.79c-1.7,1.57-11,7.82-10.89,9.37-.94-11.13-1.92-22.41-5.72-32.91a15.85,15.85,0,0,1-1-3.69,17,17,0,0,1,.6-5.05,42.49,42.49,0,0,0-3.34-26.2c-4-8.6-9.12-13.34-18-16.25a98.68,98.68,0,0,0-16.28-4.34c-.93-.14-2.19,0-2.41.88a2.51,2.51,0,0,0,.12,1.09m9,51.85.93-.16Zm-.91.15.32-.05Z" transform="translate(-159.71 -233)"/><path d="M639.15,954.7c-12.86-26.64-22.08-54.55-32-82.38-4.76-13.33-9.67-27-18.42-38.33-4.06-5.24-7.76-9.29-14.47-10.73-6-1.3-12.41-.59-18.36.76-3.33.75-6.3,2.51-9.59,3.25-4.44,1-11.31-.06-13.07,5.53-.79,2.51-.33,5.24.27,7.81a77.21,77.21,0,0,0,4,12.39c2.17,5.16,4.9,10.09,6.71,15.38,1.39,4,2.23,8.24,3.84,12.19a36.69,36.69,0,0,0,12.67,15.77c3.37,2.41,7.22,4.39,9.59,7.79,1.74,2.49,1.9,5.06,2.92,7.76,2.68,7.09,5.76,14.66,12.17,18.7,1.69,1.06,3.61,1.88,4.87,3.43a12.23,12.23,0,0,1,1.78,3.66c1.39,3.87,2.88,7.78,5.43,11,2.3,2.91,5.33,5.13,7.66,8,2.46,3,3.07,6.54,4.76,10C610.41,967.62,639.33,955.06,639.15,954.7Z" transform="translate(-159.71 -233)"/><path class="cls-4" d="M445.94,639.09l-11.4,1.17c-12.1,1.25-25,2.79-34.42,10.43-11.25,9.09-18.1,25.29-15.67,39.6,1.34,7.87,3.83,15.54,4.68,23.5q4.27,39.73,6.24,79.65c12.86-.6,25.75-.7,38.62-1.37,15.78-.83,33.55-1.52,48.69-7.25,1.77-21.94,7.72-43.62,7.38-65.64l-.5-32.29" transform="translate(-159.71 -233)"/><path d="M584,896.56q.45-.95.88-1.91a26,26,0,0,0,1.35-4c4.15-15.75,9.65-32.82,7.94-49.82-1.49-14.85-1.37-33.73-15.79-42.77-12-7.5-28.67-12.41-39.06,0a24,24,0,0,0-4.57,9.05c-6.34,23,4.26,42.91,1.21,64.49-.76,5.42-1.53,11-.43,16.33.37,1.78.93,3.53,1.17,5.33.59,4.43-.84,8.84-2,13.14a46.09,46.09,0,0,0-2,14c.21,4.87,1.68,9.63,1.73,14.5a50.42,50.42,0,0,1-1.4,10.61c-.93,4.52-5.34,13.66.53,15.52,3.61,1.14,7.8.91,11.53,1.89,1.22.32,10.26,2.64,14.9,4.22a2.25,2.25,0,0,0,2.94-1.89c.84-6.4,3.92-13.14,5.61-19.19q3.34-12,6.21-24.09c.92-3.88,1.8-7.77,3-11.55C579.41,905.59,581.87,901.15,584,896.56Z" transform="translate(-159.71 -233)"/><path class="cls-4" d="M475.57,608.49,471,581l-17.73,4.12a20.91,20.91,0,0,0-15.63,25.1l1.56,6.72a18.55,18.55,0,0,0,3.45,7.21l-3.56,16.67a14.11,14.11,0,1,0,27.73,5l2.82-19.07A18.64,18.64,0,0,0,475.57,608.49Z" transform="translate(-159.71 -233)"/><path class="cls-4" d="M480.35,754c8.36,1.84,14.42,5.23,21.8,9.19,6.36,3.41,7.59,9.7-.86,11.22-4.6.83-9.34,1.66-13.91.68-4.79-1-6.17-3.79-9.25-6.89-2.62-2.63-7.1-1.34-10.9-3a6,6,0,0,1-3.5-3.13c-.52-1.5,0-3.14.58-4.61a9.43,9.43,0,0,1,2.16-3.65c2.07-1.91,5.29-1.75,8-1.11C476.42,753.2,478.38,753.61,480.35,754Z" transform="translate(-159.71 -233)"/><path id="_Path_10" data-name="&lt;Path&gt;" d="M472,585.54a22.94,22.94,0,0,1-10.17,4.39c-3.38.58-6.89.56-10.16,1.6-8.81,2.79-7.62,12.51-6.86,19.95.27,2.62-2.09,11.43-5.73,10-2.39,0-2.78-3.56-3.34-5.08-1.08-3-2.29-5.87-3.44-8.8a14.69,14.69,0,0,1-1.44-6.35c.25-3.19,2.52-5.87,3.2-9,.52-2.4.06-4.93.46-7.35a12.22,12.22,0,0,1,5.43-8c4.13-2.72,9-1.66,13.18-3.94,2.29-1.25,4-3.37,6.07-4.92a14.49,14.49,0,0,1,11.11-2.54c3.28.62,6.49,2.62,7.66,5.74,1.08,2.87.27,6.16-1.24,8.84A18.27,18.27,0,0,1,472,585.54Z" transform="translate(-159.71 -233)"/><circle id="_Path_11" data-name="&lt;Path&gt;" class="cls-2" cx="442.8" cy="609.51" r="5.89" transform="translate(-286.29 -116.83) rotate(-13.09)"/><path class="cls-4" d="M384.45,677.78c-1.41,12-1.67,24.07-2.37,36.12-.77,13.12-.15,26.46,3.54,39.15,1.16,4,2.66,8,5.36,11.11,9.8,11.42,34,6.72,47.29,6.72h32.93c.16-.51.3-1,.47-1.54.87-4.51,3.79-15.18,4.59-19.72l-20.89-1.71-18-1.47c-4.83-.39-12.2.73-13-5.68-.29-2.25,0-4.63-.85-6.71-1.33-3.1-5.05-4.82-5.92-8.08-.65-2.45.45-5.46.61-7.94.25-3.69,2-7.09,3.45-10.48a81.74,81.74,0,0,0,5.46-18.15l-1-.07" transform="translate(-159.71 -233)"/></g><g id="_Group_2" data-name="&lt;Group&gt;"><path id="_Rectangle_2" data-name="&lt;Rectangle&gt;" class="cls-7" d="M337.61,532.24h126a0,0,0,0,1,0,0v4.46a0,0,0,0,1,0,0H336.08a0,0,0,0,1,0,0v-2.93A1.52,1.52,0,0,1,337.61,532.24Z"/><path id="_Path_12" data-name="&lt;Path&gt;" class="cls-7" d="M645.28,765.24H517.81l22.73-67.33a6,6,0,0,1,5.73-3.89H661.18c4,0,6.93,3.62,5.73,7.18Z" transform="translate(-159.71 -233)"/><path id="_Path_13" data-name="&lt;Path&gt;" class="cls-7" d="M643.06,769.69H517.19v-4.46l128.09-5.85v8.09A2.22,2.22,0,0,1,643.06,769.69Z" transform="translate(-159.71 -233)"/><path id="_Compound_Path_" data-name="&lt;Compound Path&gt;" class="cls-8" d="M594.07,731.22c-2.49-.11-4.85-2.12-3.17-5a4.28,4.28,0,0,1,3.6-1.93l.2,0a1,1,0,0,0,.24.1C599.07,725.34,598.71,731.42,594.07,731.22Z" transform="translate(-159.71 -233)"/></g><path class="cls-4" d="M514.73,726.69a9.26,9.26,0,0,1-1.56,2.55,26.32,26.32,0,0,0-1.66,2.53,18.74,18.74,0,0,0-1.24,1.89" transform="translate(-159.71 -233)"/><path d="M455.49,626.3c3.88,4.83,9.08,8.53,12.57,13.65l1.24-9.81a48.87,48.87,0,0,1,1.22-5.07C465.3,626.29,460.95,627.64,455.49,626.3Z" transform="translate(-159.71 -233)"/><path d="M461.58,614a4.09,4.09,0,0,0,3.2,3.42,5,5,0,0,0,4.54-1.53,6.33,6.33,0,0,0,1.58-4.61.15.15,0,0,0-.18.19" transform="translate(-159.71 -233)"/><path d="M443.63,607.37a2.85,2.85,0,0,0-2.69.88,2.52,2.52,0,0,0-.33,2.77,2.27,2.27,0,0,0,2.52,1.1" transform="translate(-159.71 -233)"/><path class="cls-9" d="M534.22,888.17A49.34,49.34,0,0,1,536,870.25c1.26-4.32,2.74-8.15,1.71-12.59s-1.65-7.87,0-12.36" transform="translate(-159.71 -233)"/><path class="cls-9" d="M590.55,803.44c10.12,26,1.45,55.07-5.71,82.06q-7,26.36-12,53.19" transform="translate(-159.71 -233)"/><path d="M396.35,756.5a4.47,4.47,0,0,0,.55,3.14,3.64,3.64,0,0,0,1.24,1.27,6.22,6.22,0,0,0,4.12.31" transform="translate(-159.71 -233)"/><path d="M461.9,701.31l.34-.29" transform="translate(-159.71 -233)"/><circle cx="571.28" cy="166.08" r="17.56"/><circle cx="925.34" cy="166.08" r="17.56"/><circle cx="217.21" cy="166.08" r="17.56"/><path class="cls-7" d="M439.39,392.66v-.6a62.16,62.16,0,0,0-62.16-62.16h0a62.16,62.16,0,0,0-62.16,62.16v.6Z" transform="translate(-159.71 -233)"/><path class="cls-7" d="M1146.6,392.66v-.6a62.16,62.16,0,0,0-62.16-62.16h0a62.16,62.16,0,0,0-62.16,62.16v.6Z" transform="translate(-159.71 -233)"/><line class="cls-10" x1="926.12" x2="926.12" y2="96.9"/><path class="cls-7" d="M792.54,392.66v-.6a62.16,62.16,0,0,0-62.16-62.16h0a62.16,62.16,0,0,0-62.16,62.16v.6Z" transform="translate(-159.71 -233)"/><line class="cls-10" x1="572.05" x2="572.05" y2="96.9"/><line class="cls-10" x1="220.28" x2="220.28" y2="96.9"/><path class="cls-4" d="M998.38,729.5c0,3,.24,4.27-2.37,5.4s-6.71.83-9.54,1.35c-6.22,1.14-12.4,2.94-17.75,6.4-9.17,5.94-20.14,7.11-29.71,13.21a20.13,20.13,0,0,1-5,2.64c-2.27.66-4.68.39-7,.31-6.86-.23-14.16,1.43-19,6.31-1.65,1.67-3,4.23-1.87,6.29a5.69,5.69,0,0,0,2.8,2.21c8.33,3.76,17.1,1.3,25.16-1.79,6.77-2.59,15.15-3.14,22.37-3.66,12-.88,24.21-.21,36.08-2.69,6.37-1.33,12.81-3,18.65-5.9,5.35-2.68,12-5.38,14.57-11.26a22.42,22.42,0,0,0,1.11-3.53l6.69-26.36c1.7-6.69,1.5-13.71,1.31-20.62a60.36,60.36,0,0,0-3-17.1c-1.34-4.1-2.66-9.33-5-12.95a14.74,14.74,0,0,0-10.74-6.58c-8.68-.88-16.93,4.77-16.36,14,.7,11.23-3,22.29-.53,33.46a12.88,12.88,0,0,1,.06,8A65.37,65.37,0,0,0,998.38,729.5Z" transform="translate(-159.71 -233)"/><path id="_Path_14" data-name="&lt;Path&gt;" class="cls-5" d="M970,930.32c3.5,5.22,6,10.18,5.08,17.14-1.37,10.24-9.72,17-11.93,27a6.1,6.1,0,0,0-.11,2.81,5.74,5.74,0,0,0,4.11,3.8c9.67,2.54,18.12-11.66,23.59-17.16l20.62-20.76c1.84-1.83,1.59-5.17-.55-7.38l-23-23.78-3.38-3.54c-5.61-5.86-14-6.51-18.62-1.44-4,4.39-3.67,11.89.37,17.78C967.47,926.71,968.78,928.54,970,930.32Z" transform="translate(-159.71 -233)"/><rect id="_Rectangle_3" data-name="&lt;Rectangle&gt;" class="cls-5" x="1046.85" y="834.44" width="5.12" height="113" transform="translate(1939.1 1548.88) rotate(-180)"/><path id="_Path_15" data-name="&lt;Path&gt;" class="cls-6" d="M1094.2,971.15c0-16.69-29.53-23.68-44.28-23.71-17.56,0-44.28,6.44-44.28,23.71" transform="translate(-159.71 -233)"/><line id="_Path_16" data-name="&lt;Path&gt;" class="cls-6" x1="889.71" y1="742.62" x2="889.71" y2="714.9"/><circle id="_Path_17" data-name="&lt;Path&gt;" class="cls-5" cx="845.93" cy="742.18" r="7.25"/><circle id="_Path_18" data-name="&lt;Path&gt;" class="cls-5" cx="889.84" cy="742.18" r="7.25"/><circle id="_Path_19" data-name="&lt;Path&gt;" class="cls-5" cx="933.75" cy="742.18" r="7.25"/><path id="_Path_20" data-name="&lt;Path&gt;" class="cls-4" d="M1054.38,796.51V713.37a26.05,26.05,0,0,1,26.05-26.05h28.69a26.05,26.05,0,0,1,26.05,26.05v92.95a37.44,37.44,0,0,1-37.33,37.33h-93.53a4.39,4.39,0,0,1-4.39-4.39h0a4.39,4.39,0,0,1,4.39-4.39H1016A38.35,38.35,0,0,0,1054.38,796.51Z" transform="translate(-159.71 -233)"/><path id="_Path_21" data-name="&lt;Path&gt;" class="cls-5" d="M962.15,956.76c-1.12,6.19-2.76,11.49-8.27,15.85-8.1,6.41-18.83,5.47-27.33,11.09a6.1,6.1,0,0,0-2,1.94,5.74,5.74,0,0,0,.31,5.58c5.18,8.55,21.13,4.22,28.88,4.07l29.25-.58c2.59,0,4.73-2.61,4.73-5.69V955.94l0-4.89c0-8.11-5.54-14.42-12.38-14-5.92.38-10.9,6-12.1,13C962.85,952.42,962.53,954.64,962.15,956.76Z" transform="translate(-159.71 -233)"/><path class="cls-11" d="M1016.37,748.43h0c0-.11.05-.23.08-.35Z" transform="translate(-159.71 -233)"/><polygon class="cls-11" points="876.25 422.3 875.87 424.11 875.86 424.11 876.25 422.3"/><path class="cls-11" d="M1016.68,747.05c-.06.35-.15.69-.24,1l.28-1.32C1016.7,746.86,1016.7,747,1016.68,747.05Z" transform="translate(-159.71 -233)"/><polygon class="cls-11" points="837.42 442.97 840.52 417.45 837.49 442.98 837.42 442.97"/><path d="M1001.14,650.71c2.27-6.77,6.17-13.1,12.72-16.39A44.29,44.29,0,0,1,1020,632a98.7,98.7,0,0,1,16.28-4.34c.93-.14,2.19,0,2.41.88a2.5,2.5,0,0,1-.12,1.09c-.33,1.47.47,2.73.27,4.17a51.86,51.86,0,0,1-1.42,5.58c-1,3.77-1.93,7.7-1.52,11.62.61,5.87-2.49,10.82-2.49,16.48-.2.93-2.89,14.17-3,14.15L997.2,676C998.22,667.41,998.43,658.77,1001.14,650.71Z" transform="translate(-159.71 -233)"/><path d="M918.33,815.18a25.47,25.47,0,0,1,1.28-10.8c2.39-7.39,9.56-12.38,17-14.52s15.36-2,23.13-2.24c15.52-.56,31.12-5.46,46.56-4.81,4,.17,8,1.27,12,1.12,10.55-.41,19.27-9.33,29.81-10a28.93,28.93,0,0,1,10.21,1.46c5.41,1.64,10.7,4.25,14.39,8.53,7.24,8.41,6.58,21.25,2.44,31.55a35.25,35.25,0,0,1-7,11.4c-4.37,4.54-10.19,7.21-16.09,9.14-6.8,2.22-12.42,2.07-19.52,2l-47.31-.38c-11.59-.09-23.14,1.41-34.75.45C936.16,836.88,920,829.57,918.33,815.18Z" transform="translate(-159.71 -233)"/><path d="M930,793.51c5.72-4.38,12.59-6.47,20.58-3.6a25.51,25.51,0,0,1,10.32,7.28C975.07,813.25,977.85,839.82,982,860q3.65,17.6,6.41,35.36c.52,3.38,6.48,33.6,4.5,34.59s-34.49,4-34.22,4.71c-6.26-16.27-13.63-32.55-18.72-49.18-2.88-9.42-7.55-18.11-11.41-27.14a167,167,0,0,1-10.52-33.51C915.67,812.09,919.75,801.36,930,793.51Z" transform="translate(-159.71 -233)"/><path id="_Path_22" data-name="&lt;Path&gt;" class="cls-7" d="M1017.28,817.15c-.39.51-.75,1-1.09,1.58-10,15.83,16.75,19.67,26.38,19.69l33.87.05c19.61,0,34.82-9.83,35.43-29.17V750.78l-41.89.1c-8.37,0-17.64-1.1-25.93.06-5.93.83-5.19-.51-7.64,5.34-3.07,7.34-1.49,19-2.83,27-1.71,10.16-5,20.33-11.54,28.29C1020.48,813.45,1018.75,815.2,1017.28,817.15Z" transform="translate(-159.71 -233)"/><path class="cls-7" d="M986.89,866c-2.16-.83-5-4.58-7.33-4-2.2.53-4.15,4.63-5.08,6.43-2.55,4.92-4,10.52-7.67,14.78a3.22,3.22,0,0,1-1.22,1c-1.08.41-2.24-.3-3.1-1.07-7.08-6.32-7.59-19-8.07-27.88a42.53,42.53,0,0,1,19.23-37.42,97.64,97.64,0,0,1,13.12-6.47,286,286,0,0,0,41.65-22.75,88.62,88.62,0,0,1,17.5-8.81,65,65,0,0,1,34-3.65c13.93,2.25,27.91,5.09,32.33,24.88,3.43,15.38-2.51,29.56-12.87,33.32-.23.09-.47.14-.71.22l-96.15,32.13c-.2.09-.39.19-.6.26a13.54,13.54,0,0,1-1.58.46C995.83,868.45,991.11,867.61,986.89,866Z" transform="translate(-159.71 -233)"/><path d="M1018.86,640.67a16.48,16.48,0,0,1,3.9-6c8.89-8.27,22.94-7.93,34.26-8.3a113.06,113.06,0,0,1,22.08,1.06c7.76,1.28,13.65,4.29,20.54,7.72,3.89,1.94,7.84,3.92,11,6.93,7.23,6.94,8.74,17.86,9,27.88s-8.5,112.24-8,112.26c-12.86-.6-25.75-.7-38.62-1.37-6.59-.35-13.18-.65-19.74-1.27-3.59-.34-7.21.07-10.79-.34-4-.45-3.59-2.13-6.35-3.86-1.38-.87-2.59-.16-3.5-1.34-.75-1-.38-4.72-.46-6-.28-4.28-.44-8.57-.88-12.84-.49-4.8-1.75-9.38-2.12-14.3-.91-12.13-1.38-24.35-4-36.27-2.31-10.68-6.29-21-8.42-31.67-1.46-7.36-2-15.07-.52-22.47A55.91,55.91,0,0,1,1018.86,640.67Z" transform="translate(-159.71 -233)"/><path class="cls-4" d="M1065.92,610.12c1.61-2.07,1.2-1.68,1.84-4.39l6.3-27.09L1036,569.78l-4.54,27.5a18.64,18.64,0,0,0,5.89,18.26l2.82,19.07a14.11,14.11,0,1,0,27.73-5Z" transform="translate(-159.71 -233)"/><path d="M1039.53,620.29c4.52-.16,9.28-2.19,10.56-6.81-.07.26-.94.51-1.17.6a16.23,16.23,0,0,1-7.1.56,9.78,9.78,0,0,1-4.46-1.15.65.65,0,0,0-.4-.15.49.49,0,0,0-.33.25,2.26,2.26,0,0,0,.29,2.37,3.62,3.62,0,0,1,1.1,1.58,18.08,18.08,0,0,1,.3,2.18C1038.33,619.95,1038.9,620.14,1039.53,620.29Z" transform="translate(-159.71 -233)"/><path id="_Path_23" data-name="&lt;Path&gt;" class="cls-5" d="M1034,575.64c2.65.87,5.51,1.52,8.21,2.22,3.92,1,7.89,1.82,11.78,3,10.35,3,8,13.31,8,22,0,2.39.21,5.16,2.17,6.51,5.45,3.75,6.76-7.92,8.12-10.59.73-1.45,1.82-2.71,2.42-4.22,1.22-3.11.14-6.62.57-9.93.2-1.5.71-3,.83-4.47.52-6.31-5.27-12.12-10.45-14.65-4.16-2-8.58-4.86-11.14-8.82a7.81,7.81,0,0,0-1.38-1.83,4.74,4.74,0,0,0-1.55-.81,10.11,10.11,0,0,0-9.27,1.53,11.32,11.32,0,0,1-2.48,1.76c-1.45.59-3.09.18-4.65.08a8.66,8.66,0,0,0-6.42,2,5.76,5.76,0,0,0-1.59,6.28c.54,1.27,1.62,2.26,2.2,3.51,1.35,2.88.69,5.14,3.94,6.28Z" transform="translate(-159.71 -233)"/><circle id="_Path_24" data-name="&lt;Path&gt;" class="cls-2" cx="1061.97" cy="599.68" r="4.03" transform="translate(77.57 1265.16) rotate(-76.91)"/><path class="cls-7" d="M967.77,826.38c-3.54,5.6-5.74,12-7.36,18.45-2.56,10.13-5.07,20.59-3.53,30.92.45,3,1.25,6,1.43,9.07.31,5.44-1.38,10.83-1.33,16.28,0,3.9,1,7.72,1.74,11.55a120.45,120.45,0,0,1,2.18,28.53q-.17,4.69-.4,9.37c-.13,2.5.29,6-.9,8.23,3.69.57,7.4,1,11.1,1.51,6.89.93,13.78,1.86,20.71,2.38,2.15.16,6.8,1.32,8.63-.1,1.54-1.19,1.75-4.85,2.18-6.56,3.17-12.73,5.91-26.08,3.35-39.18-.46-2.36-1.09-4.7-1.35-7.09a37.43,37.43,0,0,1,.35-9c1.67-12.34,4.69-24.42,6.29-36.79,1.68-13,2.8-26.1,3.81-39.16,1.8-23.15-30-15.61-40.64-6A36,36,0,0,0,967.77,826.38Z" transform="translate(-159.71 -233)"/><path class="cls-5" d="M871.93,539.13h-1C871,539.24,871.93,539,871.93,539.13Z" transform="translate(-159.71 -233)"/><path class="cls-4" d="M1075.37,653.45c-4.12,3.92-10.51,6.92-15.29,10a37.77,37.77,0,0,0-14.46-8.08c-3-.88-6.06-1.39-9-2.46-13.23-4.84-23.41-14.8-37-19.24-6.83-2.22-14.43-3.84-19.12-9.28-5.76-6.68-6.87-16.68-11.11-24.26-1.67-3-4.29-5.54-7.75-2.29-2.67,2.5-1.74,7.39-1.18,10.53.85,4.79,1.85,9.55,2.86,14.31,1.47,6.95,2.25,9.38,8.53,12.78a68.2,68.2,0,0,1,17.33,12.84c3.15,3.37,5.73,7.21,8.76,10.69,10.67,12.22,26.19,19.11,38,30.22,5.71,5.36,11.77,12.67,20.41,10.29,2.8-.77,35.71-9.48,34.64-11.37a159.93,159.93,0,0,1-9.83-21.25C1079.36,662.38,1077,658.05,1075.37,653.45Z" transform="translate(-159.71 -233)"/><path class="cls-12" d="M1111.38,673.48a36.84,36.84,0,0,1-20.31,15.72" transform="translate(-159.71 -233)"/><path class="cls-4" d="M850,558.48l-.05.31" transform="translate(-159.71 -233)"/><path d="M986.71,742.72H843.31a5.26,5.26,0,0,1-5.14-4.15l-17.81-82.48a5.26,5.26,0,0,1,5.14-6.37H968.9a5.26,5.26,0,0,1,5.14,4.15l17.81,82.48A5.26,5.26,0,0,1,986.71,742.72Z" transform="translate(-159.71 -233)"/><path d="M908.36,766.18l2.84-34a5.51,5.51,0,1,0-11-.92l-2.92,34.87H876.63v3.52h53.06v-3.52Z" transform="translate(-159.71 -233)"/><path class="cls-2" d="M883.88,668.56c-.4-3.49-5.93-3.53-5.53,0l1.31,11.37c.4,3.49,5.93,3.53,5.53,0Z" transform="translate(-159.71 -233)"/><path class="cls-2" d="M894.93,668.56c-.4-3.49-5.93-3.53-5.53,0l1.31,11.37c.4,3.49,5.93,3.53,5.53,0Z" transform="translate(-159.71 -233)"/><path class="cls-2" d="M906,668.56c-.4-3.49-5.93-3.53-5.53,0l1.31,11.37c.4,3.49,5.93,3.53,5.53,0Z" transform="translate(-159.71 -233)"/><path class="cls-2" d="M917,668.56c-.4-3.49-5.93-3.53-5.53,0l1.31,11.37c.4,3.49,5.93,3.53,5.53,0Z" transform="translate(-159.71 -233)"/><path class="cls-2" d="M928.08,668.56c-.4-3.49-5.93-3.53-5.53,0l1.31,11.37c.4,3.49,5.93,3.53,5.53,0Z" transform="translate(-159.71 -233)"/><path d="M1020.51,743.48c.38,2.52.41,5.47-1.49,7.16a8.43,8.43,0,0,1-4,1.6" transform="translate(-159.71 -233)"/><path class="cls-5" d="M1048.44,689.51a4.83,4.83,0,0,0,8.7,1.86" transform="translate(-159.71 -233)"/><path class="cls-5" d="M705.36,573.75a3.45,3.45,0,0,0,1.87-1.63C707.44,572.12,705.15,573.75,705.36,573.75Z" transform="translate(-159.71 -233)"/><rect id="_Rectangle_4" data-name="&lt;Rectangle&gt;" x="141.13" y="536.4" width="892.72" height="9.87"/><polygon id="_Path_25" data-name="&lt;Path&gt;" points="1024.56 770.76 1017.77 770.76 962.22 538.3 969.02 538.3 1024.56 770.76"/><polygon id="_Path_26" data-name="&lt;Path&gt;" points="963.09 770.76 956.3 770.76 900.75 538.3 907.54 538.3 963.09 770.76"/><polygon id="_Path_27" data-name="&lt;Path&gt;" points="152.83 770.76 159.63 770.76 215.18 538.3 208.38 538.3 152.83 770.76"/><polygon id="_Path_28" data-name="&lt;Path&gt;" points="214.31 770.76 221.1 770.76 276.65 538.3 269.85 538.3 214.31 770.76"/><path d="M846,867.85c-3-14.15-28.51-13-40-15-15.62-2.71-31.27-5.33-46.87-8.14-3.52-.61-7.45-1.15-10.64.82a15,15,0,0,0-4.19,4.48c-4.63,6.69-8.6,14-9.83,21.76s.66,16,6.36,20.94c5.16,4.46,12.56,5.66,19.61,6.58,4.28.55,8.37,1.54,12.59,2.26,2.44.42,4.88.12,6.93,1.51,6.11,4.13,4.45,14,2.83,20.3-1.54,6-3.51,12.33-2,18.1a44.17,44.17,0,0,1,1.33,4.65,19.15,19.15,0,0,1-.42,6.14c-1.91,10.82-5.71,22.42-1.56,32.65a17.08,17.08,0,0,1,1.33,3.69,12.39,12.39,0,0,1-.08,3.3l-2.52,22s25.11,1.16,27,1.19c2.9,0,9.28,1.13,11.9-.47,4.07-2.48,4.91-14.64,5.61-19.11,1-6.35,1.42-12.78,2.63-19.09,2.2-11.37,6.92-22.14,9-33.54,1-5.69.64-11.68,1.79-17.29,1-4.72,2.17-9.45,3-14.28l5.81-34.78a25.72,25.72,0,0,0,.5-7.88Q846.05,868.23,846,867.85Z" transform="translate(-159.71 -233)"/><path class="cls-7" d="M841.08,933.18l-2.21,5.73c-1.87,4.85-3.76,9.8-4,15s1.15,10.37,1.25,15.58c.19,8.87-4.33,16.53-4.41,25.16,0,3.21.87,6.36,1.11,9.56a46.5,46.5,0,0,1-.65,9.7q-1.07,7.81-2.14,15.62c-.59,4.29-1.92,7.13,3,7.61,12.95,1.25,25.34-.73,38.22-1.57a1.7,1.7,0,0,0,2-1.55c4.66-18.06,9.06-35.49,11.31-54a16.1,16.1,0,0,1,1.1-4.85c.89-1.93,2.5-3.4,3.83-5.05,3.3-4.1,3.38-8.36,4.81-13.12s3-9,4.05-13.83q3.66-17,7.25-34.06c2-9.42,4.35-17.83-.65-26.81-1.62-2.91-4.18-5.16-6.77-7.26a135.27,135.27,0,0,0-80.09-29.85c-10.84-.35-24.46-1.05-28.52-11.11-1.53-3.79-1.16-8-1.77-12.09-1.8-11.8-20.11-14.56-29.64-11.48-12.86,4.15-16.88,20.1-18.3,33.54-1.17,11-1.94,22.33,1.23,32.93,4.71,15.79,17.89,28.11,33,34.73,11.87,5.2,24.82,7.11,37.67,7.87,9.82.58,19.51-1.28,29.23-2.37,6.89-.78,5.83,1.17,3.63,6.89Z" transform="translate(-159.71 -233)"/><path class="cls-4" d="M754.69,640.34q.54,2.57,1,5.15c.59,3.39.91,7.29-1.38,9.86-1.33,1.49-3.33,2.24-4.67,3.71-2,2.17-2.14,5.44-1.7,8.34a98.74,98.74,0,0,1,.75,9.94c.19,3.65,1.79,7,1.63,10.76-.29,7.05-5.45,11.74-12.27,11.27-4-.28-8.6-.83-11-4.07a14.24,14.24,0,0,1-2.1-5.51c-3.32-14.51-6.64-29.71-2.89-44.12,1.39-5.33,3.14-11.63,6.31-16.2,2.3-3.31,4.83-7.63,8-10.14,3-2.32,7.43-3.15,10.44-.9,2,1.51,3,4,3.74,6.39A145.24,145.24,0,0,1,754.69,640.34Z" transform="translate(-159.71 -233)"/><path class="cls-4" d="M791.58,700.53a18.82,18.82,0,0,1,8.62-13.17,100.22,100.22,0,0,1,15.93-8l2.21-.8c14.6-5.21,30-8.42,44.33-14.28,15.9-6.49,31.2-14.22,46.78-21.4,10.49-4.84,20.6-10,29.84-17,7.83-5.9,5.37-17.72,9.12-25.83,1.61-3.49,4.66-7.12,7.48-2.38,2.62,4.4,1.86,10.24,2.5,15.11s1.28,9.78-.87,14.4c-1.51,3.25-4.25,5.73-6.92,8.13l-7.72,6.92c-3,2.65-5.88,5.51-9,7.89q-14.75,11.15-28.41,23.65c-9,8.21-17.17,16.64-27.49,23.33a117.74,117.74,0,0,1-32.81,15l-.56.15c-11.4,3.1-21.83,7.75-34.06,6.49C801,717.77,789.76,711.53,791.58,700.53Z" transform="translate(-159.71 -233)"/><path d="M784.65,818.25c0,.35-31.28,1.94-34.16,2.12-5.64.36-12.9,2.08-18.46,1.14-3.55-.6-5.06-4.35-9.26-3.56-2.52.48-5.5,1.38-7.35-.39-1.19-1.14-1.36-3-1.45-4.6L712,777.65c-.54-9.72-12.51-12.39-19.51-16.82l-14.29-9.05c8.94-19.27,21.35-36,36-51.25,15.35-16,26.25-17.44,48.7-17.66a222.71,222.71,0,0,0,53.83-7.15c4.2,14.9,8.64,29.92,12.68,44.75-10.31,5.59-22.83,9.63-34,13.36-3.33,1.26-6.92,2.73-8.73,5.8-1.42,2.4-1.48,5.33-1.5,8.12Z" transform="translate(-159.71 -233)"/><line class="cls-13" x1="1015.34" y1="926.37" x2="961.84" y2="926.37"/><path d="M1134.48,1024.88a14.62,14.62,0,0,1,.17-1.58c.95-5.75,5.47-10.12,8.57-15.06a33,33,0,0,0,5-16c.44-10.61.14-24.22,4.71-34,4.12-8.85,13.91-13.66,18.93-22,2.77-4.59,3.63-10,4.87-15.27,2-8.31,5.12-16.54,10.69-23,4.34-5,9.94-8.79,15.47-12.48,5.38-3.59,10.83-7.21,16.93-9.37,8-2.83,16.9-3.76,20.61,4.49,3,6.66,1.49,16.11-1.68,22.38-2.75,5.46-7.1,9.9-11.2,14.44a210.26,210.26,0,0,0-19.45,25.12c-1.63,2.47-3.25,5.08-3.61,8s.51,5.69.87,8.53c1.82,14.44-4.14,26.12-15.29,34.91-8.81,6.94-14.3,10.88-16.52,22.9-1.37,7.44-2,15.34-6.12,21.67a73.45,73.45,0,0,1-5.9,7.14,56.18,56.18,0,0,0-13.07,31.2c-.51,5.71-1.71,18.58-10.89,16-11.23-3.17-9.86-36-6.57-43.73,1.4-3.3,3.5-6.36,4.17-9.88C1136,1034.5,1134.22,1029.64,1134.48,1024.88Z" transform="translate(-159.71 -233)"/><path class="cls-7" d="M1088.75,1043.95a17.16,17.16,0,0,1-5.78-6.34c-3.42-7.19,1.87-12.12,2.26-18.89.36-6.13-4.93-10-8.28-14.25a19.26,19.26,0,0,1-2.42-19.31c1.22-2.74,3.14-5.46,2.72-8.42-.31-2.18-1.82-4-3-5.83a18.47,18.47,0,0,1-.41-17.92c1.68-3.11,4.29-5.81,5-9.26a18.39,18.39,0,0,0-.38-7c-1.39-7.54-2.73-15.19-2.24-22.84.21-3.35.83-6.8,2.76-9.55,1.73-2.46,4.71-4.47,7.83-3.64s3.69,3.47,4.85,6.09c3.33,7.6,4.22,14.43,5.68,22.59a10,10,0,0,0,1.43,4.07,12.59,12.59,0,0,0,3.68,3c8.63,5.6,15.68,14.83,15.63,25.12,0,6-2.45,11.85-2.53,17.88a7.08,7.08,0,0,0,1.08,4.41,9.38,9.38,0,0,0,3.47,2.38c3.75,1.9,7.3,4.6,9.09,8.41,2,4.31,1.51,9.4.08,13.94s-3.71,8.77-5.23,13.28a8.46,8.46,0,0,0-.59,3.47c.27,2.81,2.58,4.15,4.1,6.22s1.77,3.68,2.62,6.17c2.25,6.62,4.6,12,3.52,19.28-.43,2.87-1.28,5.67-1.58,8.56-.62,5.77.93,11.51,1.83,17.24.59,3.81,2,12.71-1.89,15.34-3.36,2.27-8.14-1.46-11-3.1-8.88-5.16-15.13-9.31-16.55-19.93-1-7.56,0-16.26-5-22.66C1096.78,1048.83,1092.44,1046.63,1088.75,1043.95Z" transform="translate(-159.71 -233)"/><path class="cls-7" d="M1147.21,1048.61a65.7,65.7,0,0,1,8.72-15.9c2.64-3.53,5.64-6.81,8-10.54,3.76-6,5.73-12.94,9.38-19,5.59-9.28,16.75-14.58,27-9.28a45.89,45.89,0,0,1,9.64,7.33,80.43,80.43,0,0,1,9.41,9.75c5.57,7.17,8.75,15.86,11.84,24.4l11,30.24c1.74,4.79,5.81,15.72,1.81,20.46s-12.41-2-14.18-5.84a17.35,17.35,0,0,0-5.11-6.41c-2.77-2.14-6.31-3.57-8-6.63s-1.46-7.89-4.71-9.54a22.66,22.66,0,0,0-3-.92c-2.79-1-4.56-3.64-6.07-6.17-3.44-5.77-6.07-12.26-9.77-17.81-2.34.71-4.42,7.78-6,10a35.07,35.07,0,0,1-8.5,8.44c-5,3.5-11.16,5.88-14.48,11-1.84,2.86-2.58,6.26-3.56,9.51-1.4,4.66-5.82,18.1-13,15.82-4.94-1.56-4.7-9.89-4.77-13.83A67.41,67.41,0,0,1,1147.21,1048.61Z" transform="translate(-159.71 -233)"/><path d="M1185.09,1077h-104.4v13h8.38l6.8,38.54a37.59,37.59,0,0,0,37,31.06h0a37.59,37.59,0,0,0,37-31.06l6.8-38.54h8.38Z" transform="translate(-159.71 -233)"/><line class="cls-9" x1="926.41" y1="858.11" x2="1019.94" y2="858.11"/><path class="cls-14" d="M752.56,847.14l25.25,3c15.12,1.82,31.54,4.27,42,15.35,6.53,6.92,9.77,16.42,10.76,25.88s-.07,19-1.13,28.45" transform="translate(-159.71 -233)"/><rect id="_Rectangle_5" data-name="&lt;Rectangle&gt;" class="cls-5" x="570.37" y="683.05" width="5.12" height="113"/><path id="_Path_29" data-name="&lt;Path&gt;" class="cls-6" d="M687.85,1052.76c0-16.69,29.53-23.68,44.28-23.71,17.56,0,44.28,6.44,44.28,23.71" transform="translate(-159.71 -233)"/><line id="_Path_30" data-name="&lt;Path&gt;" class="cls-6" x1="572.91" y1="824.22" x2="572.91" y2="796.5"/><circle id="_Path_31" data-name="&lt;Path&gt;" class="cls-5" cx="616.7" cy="823.78" r="7.25"/><circle id="_Path_32" data-name="&lt;Path&gt;" class="cls-5" cx="572.78" cy="823.78" r="7.25"/><circle id="_Path_33" data-name="&lt;Path&gt;" class="cls-5" cx="528.87" cy="823.78" r="7.25"/><path id="_Path_34" data-name="&lt;Path&gt;" class="cls-4" d="M767.4,873.49v-97C767.4,759.66,752,746,733,746H695.15c-19,0-34.39,13.61-34.39,30.41V884.93c0,24,22.17,43.56,49.26,43.56H833.46c3.2,0,5.8-2.29,5.8-5.13h0c0-2.83-2.59-5.13-5.8-5.13H818C790.06,918.25,767.4,898.21,767.4,873.49Z" transform="translate(-159.71 -233)"/><path class="cls-4" d="M701.84,613.15c-5.14.27-10.32.53-15.06,2.22-9.4,3.35-13.68,10.37-18.46,18.2S655.44,646.22,649.41,653c-11.19,12.58-12.67,32.78-3.42,46.85a48.78,48.78,0,0,0,11.49,11.92c24.61,18.62,64.75,5.32,79.07-20.82,7.56-13.81,4.68-30.75,1.6-46.19-1.7-8.49-.71-15.18,8.1-19.58,2.27-1.13,4.76-1.83,6.87-3.23,5.15-3.41,7-10.74,4.63-16.46s-8.21-9.6-14.34-10.27a15.91,15.91,0,0,0-7.88,1c-5.84,2.46-9.12,8.7-14.33,12.31C715.62,612.42,708.77,612.79,701.84,613.15Z" transform="translate(-159.71 -233)"/><path d="M864,693c-.29.13-.2.57,0,.84a5.57,5.57,0,0,0,5.19,2.36,9.6,9.6,0,0,0,5.34-2.5" transform="translate(-159.71 -233)"/><path class="cls-4" d="M275.12,1026.44a63.34,63.34,0,0,1,22.46,2q-.09-19.07-1.05-38.36c-.43-8.47-3.59-16.25-13.35-17.91-5.92-1-10.48,1-12.3,5.9C266.47,990,272,1012.87,275.12,1026.44Z" transform="translate(-159.71 -233)"/><path d="M245.36,925.15c.87,8.12-.53,17.36-.84,25.63-.35,9.48,4.09,16.72,5.17,25.78a192,192,0,0,1,.89,26.21.67.67,0,0,0,.67.68h55.2a.68.68,0,0,0,.67-.61l1.06-10.63c.8-8.11,1-14.74-1.26-22.45a102.53,102.53,0,0,1-2.37-10.05c-1-5.39-1.68-10.89-2.19-16.17-.79-8.14-.78-16.33-1.48-24.47-.68-7.94-2-15.8-3.4-23.65-4.11-23.78-8.24-47.59-13.94-71.05-2.87-11.8-6.13-23.51-10-35A206.85,206.85,0,0,0,255.95,750c-4.41-7.51-9.66-15.71-18.46-18.48-6.93-2.18-14.76-3.16-21.64-.27-9.3,3.91-16.5,11.53-24.16,17.83l-3.14,15.35c-2.48,12.13.79,26.12,6.65,36.83,2.18,4,4.83,7.75,6.59,11.95,2.63,6.27,3.14,13.2,5.15,19.69s5.39,12.25,8.62,18.11C227.77,873.26,242.62,899.59,245.36,925.15Z" transform="translate(-159.71 -233)"/><path class="cls-4" d="M325.68,737.65c1.21,5.34.34,12.07,3.77,16.73s13.72,6.17,19,8.06a7.21,7.21,0,0,1,3.14,1.78c2,2.25.21,6.07-2.53,7.26s-5.88.56-8.8-.09l-20.63-4.56a14.62,14.62,0,0,1-4.11-1.35c-3.5-2-4.74-6.38-5.27-10.37-3.83-28.49-30.56-47.39-39.62-74.07a166.55,166.55,0,0,1-5.16-21c-2.06-10.34-4-20.72-6.19-31-1.59-7.41-5.77-14-1.33-21.38,3.41-5.66,11.12-8.12,17.31-5.83,9.93,3.68,13.36,14.74,16.43,23.65,4.27,12.41,7.81,23.69,7.08,37.07-.19,3.54-.61,7.2.6,10.53,1.36,3.72,4.53,6.42,7.07,9.46,8.58,10.24,9.93,24,13,36.49,1.56,6.3,4.62,12.14,6.15,18.31Z" transform="translate(-159.71 -233)"/><path class="cls-4" d="M175.12,1038.51a61.45,61.45,0,0,1,21.93,1.95q4.92-18.3,9-36.8c1.8-8.13.67-15.59-8.65-17.18-5.65-1-10.74.94-13.85,5.66C176,1003.54,175.58,1025.5,175.12,1038.51Z" transform="translate(-159.71 -233)"/><path d="M234.16,1053.87c-5.22,3.36-11.61,3.68-17.61,3.54l-1.82,0q-14.1,0-28.17-1c-3.84-.27-8.2-.65-11.42-3-3.78-2.73-3.23-7.37-2.3-11.47a62.21,62.21,0,0,0,1.44-10.69c4.37,1.34,9.33,2.76,13.9,2.3a23.78,23.78,0,0,0,7.44-2,19.71,19.71,0,0,0,3.32-1.91c.56-.4,2.13-2.26,2.8-2.12s1,1.78,1.33,2.26a15.71,15.71,0,0,0,2.6,3,18.82,18.82,0,0,0,6.53,4,42.83,42.83,0,0,0,6.86,1.58q4.94.9,9.82,2.12a18.41,18.41,0,0,1,5.78,2.22,6.78,6.78,0,0,1,3.23,5,6.88,6.88,0,0,1-3.24,5.72Z" transform="translate(-159.71 -233)"/><path class="cls-7" d="M331.49,1039.6c-.57,2.65-3.73,4.62-6.58,5.47-12.61,3.74-26.16.15-39.26,1.22-3.23.26-6.53.81-9.68,0-7.2-1.81-7-10.73-5.3-16.52.78-2.66,2.1-5.41,1.36-8.09a49.23,49.23,0,0,0,17.68.43A14.4,14.4,0,0,0,296,1020c.78-.56,1.66-1.3,2.57-1a2.79,2.79,0,0,1,1.29,1.35c2.76,4.49,6.62,6.16,11.08,8.44a27.49,27.49,0,0,0,5.5,2.55c2.6.71,5.25,1.21,7.89,1.78,3,.64,6.54,1.82,7.19,4.81A4,4,0,0,1,331.49,1039.6Z" transform="translate(-159.71 -233)"/><path class="cls-7" d="M241,845.6c-1.36-13.45-1.83-26.95-2.5-40.56a359.44,359.44,0,0,0-4.34-38.54c-.75-4.74-.16-8.93-1.68-13.59a82.9,82.9,0,0,0-7.63-17.3c-4.78-7.89-11.69-14.79-20.41-17.89-5.94-2.11-12.56-2.12-18,1.13s-8.22,8.43-10.88,13.84l-4.79,9.71c-3.49,7.08-7,14.21-9.12,21.82s-2.79,15.79-.57,23.37c1.42,4.84,4.17,7.51,6.47,11.73a39.1,39.1,0,0,1,4.77,17.06c.16,4.29-.45,8.56-.61,12.85-.37,9.62,1.53,19.2,4.08,28.49,1,3.68,2.12,7.37,2.3,11.18a86.77,86.77,0,0,1-.55,9.39c-.53,8.48,1.1,16.88,1.54,25.33.46,8.68-1.28,15.65-4.52,23.55a42.78,42.78,0,0,0-3.19,16c0,8.37,1.35,16.89-1.14,25-.75,2.47-1.86,4.81-2.84,7.2-4.18,10.25-5.89,21.31-7.48,32.28a1,1,0,0,0,.9,1.2c3.85.5,16.89,3.1,18.09,3.24,11.95,1.39,22.93-2.66,34.56.06a1.05,1.05,0,0,0,1.24-.66,482.8,482.8,0,0,0,20.64-76c1.39-7.47.39-14.54.71-21.9a49.16,49.16,0,0,1,1.7-9.52c4.24-14.64,7.61-28.5,5.13-43.81C242.09,855.44,241.47,850.53,241,845.6Z" transform="translate(-159.71 -233)"/><path d="M259.19,596.25a41.64,41.64,0,0,0-19.51-9.53,16.16,16.16,0,0,0-7.78.07,20.21,20.21,0,0,0-4.69,2.42c-10.78,6.82-19.95,16-25.36,27.7-4.43,9.59-6.7,20-8.64,30.41-1.13,6.08-12.15,80.26-15.78,79.2,4.31,1.26,8.72,2.18,12.94,3.77,6.05,2.29,12.11,4.66,18.06,7.19,11.94,5.09,23.5,10.46,36.1,13.56a13.1,13.1,0,0,0,4.06-5.08,79.84,79.84,0,0,0,6.26-20.69c4-25.68,5.87-53.16,12.48-78.28,3-11.45,5.11-24.22,1.69-35.81A32.28,32.28,0,0,0,259.19,596.25Z" transform="translate(-159.71 -233)"/><path class="cls-4" d="M251,736.44c3.18,1.45,6.46,2.83,9.75,4.35a218.44,218.44,0,0,1,42.61,26c-3.86,3.63-7.32,8.2-7.64,13.49s3.76,11,9,10.79c3.05-3.43,3.47-8.44,5.68-12.46,2.88-5.23,11.49-5.05,13.44-9,2-4.15-2.61-9.73-4.91-12.69-6.57-8.45-16.81-13.34-23.41-21.64-2.36-3-4.07-6.39-6.18-9.54a44.07,44.07,0,0,0-13-12.68c-10.12-6.39-13.71-15.37-18.66-25.93a55.47,55.47,0,0,1-3.93-10c-1.11-4.49-1.09-9.17-1.8-13.74-1-6.53-3.5-12.74-6.34-18.71-2.58-5.41-5.53-10.79-9.93-14.86S225.19,623,219.28,624c-7.34,1.24-12.87,7.83-15,15s-1.48,14.76-.61,22.15c.83,7.11,1.89,14.37,5.24,20.7,3.21,6.07,7.9,11.26,11.3,17.24,3.24,5.69,5,11.85,7.81,17.76C233.05,727.32,241.56,732.16,251,736.44Z" transform="translate(-159.71 -233)"/><path d="M246.6,592.21a19.45,19.45,0,0,0-3.37,6.81c-3.5,12.82,1.46,28.6,6.82,40.2,2,4.27,2.78,11.48,7.53,13.72,3.24,1.53,5.59-.87,8.28-2.23,3.19-1.61,6.6-3,9.81-4.62q10.82-5.61,21.21-12c-3.75-17.5-12.14-35.32-27.76-44.05-5-2.8-11.1-4.54-16.45-2.48A14.31,14.31,0,0,0,246.6,592.21Z" transform="translate(-159.71 -233)"/><path class="cls-4" d="M227.45,580a69.47,69.47,0,0,0,3-14.39c.53-5.68.52-11.54,2.6-16.86,3.22-8.22,14.71-13.56,23.13-11.53,11.84,2.85,8.28,22.75,7.19,31.61-.53,4.33-3.8,7.4-6.11,11-3.84,6-4.37,15.81-4.95,22.81a4.2,4.2,0,0,1-.64,2.29,4.11,4.11,0,0,1-2.48,1.18c-4.78,1.05-9.61,2.11-14.5,2-6.44-.11-16.56-2.35-13.56-10.68C223.32,591.39,225.64,585.79,227.45,580Z" transform="translate(-159.71 -233)"/><path d="M260,522.55a13.53,13.53,0,0,0-9.88,3.33c-1.13,1-2.14,2.29-3.56,2.86a10.56,10.56,0,0,1-2.24.5,25,25,0,0,0-17,11.41,11.09,11.09,0,0,0-1.72,4.33,13.44,13.44,0,0,0,.2,3.72q.66,4.29,1.63,8.53a20.75,20.75,0,0,1,.81,3.84,11.64,11.64,0,0,0,.21,3.16c1.29,4.36,5.5,2.35,7.26-.5a45.56,45.56,0,0,0,3.28-7.43c1.26-3.21,2.82-6.46,5.57-8.53s6-2.63,9.28-3.16c3.51-.56,8.39-1,11-3.73,2.8-2.95,5-6.89,4.62-11.07a6.86,6.86,0,0,0-.83-2.92,7.29,7.29,0,0,0-2.46-2.38A13,13,0,0,0,260,522.55Z" transform="translate(-159.71 -233)"/><path class="cls-2" d="M242.87,555a5,5,0,0,0-6.88-2.19c-2.9,1.5-4.52,5.63-3.9,8.76.55,2.77,3.38,4.77,5.92,3.19a6.71,6.71,0,0,0,3.07-1.82C243,560.89,244.24,557.74,242.87,555Z" transform="translate(-159.71 -233)"/><path d="M238.18,558.27c-.31-1.42-2.32-.78-2.13.59.16,1.14.14,2.12.92,3a.89.89,0,0,0,1.47-.39C238.84,560.42,238.41,559.33,238.18,558.27Z" transform="translate(-159.71 -233)"/><path d="M237.44,716a4.17,4.17,0,0,0-.14,2.74,5.23,5.23,0,0,0,3,3.17,3.25,3.25,0,0,0,1,.28,4.3,4.3,0,0,0,2.38-.8" transform="translate(-159.71 -233)"/><path d="M197.23,640.54a32.09,32.09,0,0,0-.46,7.5c.48,10.15,2.82,20.1,5.13,30,5.57-5.34,13.23-7.77,20.6-10l23.31-7.18c2.21-.68,4.75-1.69,5.35-3.92a6.52,6.52,0,0,0,.06-2.38c-1.55-14.57-12.27-41.31-31.09-38-5.71,1-10.49,4.85-14.53,9C201,630.2,198.29,634.92,197.23,640.54Z" transform="translate(-159.71 -233)"/><path class="cls-2" d="M234.72,620.8c-.47-.35-1,.38-.6.77A62.07,62.07,0,0,1,245,637c3.06,6.48,4.56,13.42,7.16,20a.46.46,0,0,0,.88-.24C250.89,644.15,245.4,628.76,234.72,620.8Z" transform="translate(-159.71 -233)"/><path d="M247.9,574.18c.29.46.73,1.43.84,1.66.48,1,.89,2.06,1.28,3.11,1.6,4.25,3.23,8.63,3.17,13.18,0-3.2,1.71-5.75,2.75-8.66a42,42,0,0,1,4.51-8.24c.75-1.18,1.31-3.43-.62-1.94a7.87,7.87,0,0,1-3.8,1.51c-2.79.37-5.63-.3-8.35-.85C247.73,573.94,247.81,574,247.9,574.18Z" transform="translate(-159.71 -233)"/><path d="M252.68,561.94a1.73,1.73,0,0,0,.32,1.35,5.45,5.45,0,0,0,2,2,3.5,3.5,0,0,0,2.77.31,4.45,4.45,0,0,0,2.45-2.66c.1-.23.15-.57-.08-.68" transform="translate(-159.71 -233)"/><path class="cls-7" d="M376.09,1053.15c.31-4.51.67-8.29.69-10.48a70.12,70.12,0,0,0-.59-12.29c-.94-5.64-3.24-10.95-5.23-16.31-4.41-11.89-7.39-24.84-4.67-37.23,1.83-8.34,6.16-16,7.9-24.33,1.26-6,1.13-12.31,2.25-18.38.92-5,7.22-21.32,14.92-15.27a9.19,9.19,0,0,1,2.58,4.17c2.16,5.74,3.44,11.86,6.38,17.24,3.14,5.76,8.07,10.5,10.51,16.58,2.36,5.87,2.18,12.44,1.48,18.73-2.44,21.89-9.78,42.85-6.73,65.29.52,3.8,1.61,34.91-4,34.91-1.9,5.06-5,12.9-10.94,14.21C374.46,1093.54,375,1068.91,376.09,1053.15Z" transform="translate(-159.71 -233)"/><path d="M320,1091.28c-6.36,6-11.08,13.5-20.55,15-11.86,1.92-17.9-9.31-13.66-19.75,2.79-6.87,8.61-11.95,13.65-17.38a97.39,97.39,0,0,0,14.4-20.15c2.92-5.43,5.51-11.39,10.49-15,3.26-2.38,7.24-3.53,11.12-4.64,7.67-2.18,15.92-4.36,23.48-1.82,4.73,1.59,8.68,4.88,12.24,8.38,20.67,20.67,19.12,47.42,14.35,74.06-.43,2.42-1.09,5.16-3.26,6.33-3.5,1.87-7.44-2-8.67-5.76-3-9.12-1.18-17.19-7.17-25.29-4.84-6.56-13.63-11.75-16.29-19.53-.81-2.37-1.16-5-2.74-6.95s-5.09-2.6-6.41-.47c-.69,1.12-.51,2.54-.42,3.86A25.2,25.2,0,0,1,330.45,1084c-2.79,2-6,3.45-8.62,5.66C321.22,1090.2,320.62,1090.74,320,1091.28Z" transform="translate(-159.71 -233)"/><path class="cls-7" d="M388.21,1063.9a24.81,24.81,0,0,1,.11-3.6c1.4-12.6,18.93-14.39,27.62-20,8.29-5.37,13.4-16.63,24.1-5.59,5.13,5.29,8.59,14.9,9.63,22.07q3,20.77,5.8,41.58c.41,3.09.79,6.41-.63,9.18-2.64,5.15-10.45,5.58-15.1,2.15-6.51-4-8.89-14.88-11.41-21.42-1.19-3.09-2.4-6.3-2.17-9.6.28-4.06,2.73-7.93,2.08-11.95-.2-1.26-1.08-2.71-2.35-2.54a2.75,2.75,0,0,0-1.1.49c-5.75,3.72-7.67,9.53-11.21,15-3.72,5.7-6.64,5-10.94,9-8.93,8.17-6.22,26.59-9.45,37.56-.83,2.81-3.57,6.15-6,4.51a4.85,4.85,0,0,1-1.62-3,78.58,78.58,0,0,1,.1-37.35c1.28-5.16,3.11-10.26,3.25-15.58C389,1071.08,388.34,1067.48,388.21,1063.9Z" transform="translate(-159.71 -233)"/><path d="M427.3,1103.82H341.7v10.7h6.87l5.58,31.6a30.82,30.82,0,0,0,30.35,25.46h0a30.82,30.82,0,0,0,30.35-25.46l5.58-31.6h6.87Z" transform="translate(-159.71 -233)"/><line class="cls-9" x1="186.45" y1="882.41" x2="263.13" y2="882.41"/><line class="cls-15" x1="206.83" y1="939.09" x2="287.46" y2="939.09"/><path d="M1062.3,597.95a1.7,1.7,0,0,1,1.61,2.68,2.74,2.74,0,0,1-1.34.88s-.13,0-.12,0" transform="translate(-159.71 -233)"/><path d="M1034.55,602.2a1.88,1.88,0,0,0,.41,1.5,4.85,4.85,0,0,0,2,1.75,4.05,4.05,0,0,0,3.16,0,4.54,4.54,0,0,0,2.28-2.22h-.18" transform="translate(-159.71 -233)"/></svg>