<svg xmlns="http://www.w3.org/2000/svg" width="60.987" height="62" viewBox="0 0 60.987 62">
  <g id="users" transform="translate(-1.513 -1)">
    <g id="Group_5" data-name="Group 5">
      <path id="Path_97" data-name="Path 97" d="M37.467,41.7a6.924,6.924,0,1,1,6.924-6.924A6.924,6.924,0,0,1,37.467,41.7Z" fill="#5757ff"/>
      <path id="Path_98" data-name="Path 98" d="M23.62,47.022a5.859,5.859,0,1,1,5.858-5.859A5.859,5.859,0,0,1,23.62,47.022Z" fill="#5757ff"/>
      <path id="Path_99" data-name="Path 99" d="M52.38,47.022a5.859,5.859,0,1,1,5.859-5.859,5.859,5.859,0,0,1-5.859,5.859Z" fill="#5757ff"/>
      <path id="Path_100" data-name="Path 100" d="M50.818,59.84V63H25.182V59.84a12.818,12.818,0,1,1,25.636,0ZM13.5,60.662a10.087,10.087,0,0,1,12.581-9.807,14.854,14.854,0,0,0-3.029,8.985V63H13.5ZM62.5,63H52.948V59.84a14.855,14.855,0,0,0-3.015-8.985A10.1,10.1,0,0,1,62.5,60.662Z" fill="#5757ff"/>
    </g>
    <path id="Path_101" data-name="Path 101" d="M42.865,32.626V19.374A4,4,0,1,0,39.007,12.7L27.536,6.077A3.963,3.963,0,0,0,27.7,5.01a4.01,4.01,0,0,0-8.02,0,3.963,3.963,0,0,0,.162,1.067L8.368,12.7A4,4,0,1,0,4.51,19.374V32.626A4,4,0,1,0,8.369,39.3L19.84,45.923a3.963,3.963,0,0,0-.162,1.067,4.01,4.01,0,0,0,8.02,0,3.963,3.963,0,0,0-.162-1.067L39.007,39.3a4,4,0,1,0,3.858-6.674ZM39.007,33.69,28.679,27.727a4.921,4.921,0,0,0,0-3.454L39.007,18.31a4,4,0,0,0,1.858,1.064V32.626a4,4,0,0,0-1.858,1.064ZM23.687,29.3A3.3,3.3,0,1,1,26.992,26a3.3,3.3,0,0,1-3.305,3.3ZM6.51,32.626V19.374A4,4,0,0,0,8.369,18.31L18.7,24.273a4.921,4.921,0,0,0,0,3.454L8.369,33.69A4,4,0,0,0,6.51,32.626ZM41.865,13.5a2.011,2.011,0,1,1-2.01,2.01A2.011,2.011,0,0,1,41.865,13.5Zm-3.847.943a3.571,3.571,0,0,0,0,2.133L27.677,22.542a5.286,5.286,0,0,0-2.99-1.746V8.879a4,4,0,0,0,1.86-1.064ZM23.687,3a2.011,2.011,0,1,1-2.009,2.01A2.011,2.011,0,0,1,23.687,3ZM20.829,7.815a4,4,0,0,0,1.858,1.064V20.8A5.287,5.287,0,0,0,19.7,22.542L9.36,16.572a3.574,3.574,0,0,0,0-2.134ZM3.5,15.505a2.011,2.011,0,0,1,4.021,0,1.986,1.986,0,0,1-.271.987l-.01.012a.024.024,0,0,1-.006.019A2,2,0,0,1,3.5,15.5Zm2.01,23A2.011,2.011,0,1,1,7.521,36.5a2.011,2.011,0,0,1-2.011,2.01Zm3.848-.943a3.574,3.574,0,0,0,0-2.134L19.7,29.458A5.281,5.281,0,0,0,22.687,31.2V43.121a4,4,0,0,0-1.857,1.063ZM23.687,49A2.011,2.011,0,1,1,25.7,46.99,2.011,2.011,0,0,1,23.687,49Zm2.859-4.816a4,4,0,0,0-1.859-1.063V31.2a5.283,5.283,0,0,0,2.99-1.746l10.341,5.97a3.574,3.574,0,0,0,0,2.134ZM41.865,38.5a2.011,2.011,0,1,1,2.011-2.01A2.011,2.011,0,0,1,41.865,38.5Z"/>
  </g>
</svg>
